M48
; DRILL file {KiCad 7.0.1-0} date 2023 September 16, Saturday 16:04:34
; FORMAT={-:-/ absolute / metric / decimal}
; #@! TF.CreationDate,2023-09-16T16:04:34+01:00
; #@! TF.GenerationSoftware,Kicad,Pcbnew,7.0.1-0
; #@! TF.FileFunction,Plated,1,2,PTH
FMAT,2
METRIC
; #@! TA.AperFunction,Plated,PTH,ComponentDrill
T1C0.300
; #@! TA.AperFunction,Plated,PTH,ViaDrill
T2C0.400
; #@! TA.AperFunction,Plated,PTH,ComponentDrill
T3C0.700
; #@! TA.AperFunction,Plated,PTH,ComponentDrill
T4C0.800
; #@! TA.AperFunction,Plated,PTH,ComponentDrill
T5C0.840
; #@! TA.AperFunction,Plated,PTH,ComponentDrill
T6C0.900
; #@! TA.AperFunction,Plated,PTH,ComponentDrill
T7C1.000
; #@! TA.AperFunction,Plated,PTH,ComponentDrill
T8C1.100
; #@! TA.AperFunction,Plated,PTH,ComponentDrill
T9C1.200
; #@! TA.AperFunction,Plated,PTH,ComponentDrill
T10C1.300
; #@! TA.AperFunction,Plated,PTH,ComponentDrill
T11C1.400
; #@! TA.AperFunction,Plated,PTH,ComponentDrill
T12C1.500
; #@! TA.AperFunction,Plated,PTH,ComponentDrill
T13C1.600
; #@! TA.AperFunction,Plated,PTH,ComponentDrill
T14C1.700
; #@! TA.AperFunction,Plated,PTH,ComponentDrill
T15C1.800
; #@! TA.AperFunction,Plated,PTH,ComponentDrill
T16C3.400
%
G90
G05
T1
X137.81Y-86.18
T2
X40.056Y-48.438
X42.57Y-48.412
X43.612Y-217.399
X43.68Y-164.17
X45.075Y-79.175
X45.35Y-68.35
X46.22Y-134.94
X46.27Y-101.32
X46.38Y-123.99
X46.55Y-112.09
X46.634Y-242.189
X47.3Y-130.83
X47.51Y-165.15
X47.59Y-163.76
X47.625Y-79.15
X47.74Y-166.67
X48.23Y-146.67
X48.24Y-151.45
X48.24Y-154.63
X48.24Y-159.35
X48.25Y-156.17
X48.29Y-157.8
X48.3Y-148.27
X48.31Y-153.05
X48.31Y-160.9
X48.87Y-131.79
X49.08Y-246.25
X49.936Y-240.817
X50.42Y-132.1
X50.48Y-134.05
X51.35Y-84.97
X51.47Y-96.29
X51.47Y-110.22
X52.31Y-133.36
X53.33Y-165.14
X53.34Y-169.93
X53.6Y-157.79
X53.7Y-176.9
X53.8Y-150.17
X53.83Y-153.71
X53.873Y-192.786
X53.88Y-137.49
X53.89Y-152.13
X53.9Y-155.26
X53.92Y-166.67
X53.94Y-104.53
X53.95Y-131.79
X53.98Y-96.26
X54.01Y-101.49
X54.19Y-148.56
X55.11Y-159.94
X55.12Y-161.26
X55.14Y-147.02
X55.14Y-158.46
X55.22Y-176.88
X55.85Y-83.59
X55.87Y-168.62
X56.51Y-145.77
X56.57Y-136.39
X56.91Y-89.06
X57.26Y-39.18
X57.28Y-40.46
X57.32Y-41.75
X57.41Y-168.64
X57.66Y-82.96
X57.78Y-144.47
X57.79Y-128.69
X58.32Y-158.43
X59.01Y-103.9
X59.02Y-83.89
X60.56Y-165.09
X60.61Y-163.83
X60.62Y-166.34
X60.64Y-167.65
X61.45Y-135.01
X61.55Y-116.62
X61.61Y-112.05
X61.64Y-103.92
X61.71Y-93.58
X62.76Y-155.37
X62.79Y-128.04
X62.83Y-95.06
X62.94Y-93.64
X63.49Y-167.7
X63.51Y-165.09
X63.53Y-166.38
X64.12Y-93.71
X65.13Y-167.64
X65.36Y-96.33
X65.44Y-127.86
X65.76Y-138.55
X66.47Y-116.55
X66.51Y-161.63
X66.61Y-103.96
X66.63Y-149.62
X66.64Y-169.85
X66.65Y-240.894
X67.38Y-178.41
X67.39Y-136.2
X67.81Y-169.94
X67.86Y-160.07
X67.88Y-174.95
X67.92Y-100.76
X68.56Y-85.5
X68.61Y-135.53
X69.17Y-112.06
X69.25Y-44.575
X69.31Y-103.85
X69.79Y-166.68
X69.81Y-100.79
X69.91Y-135.61
X70.275Y-72.975
X70.56Y-169.24
X71.13Y-108.24
X71.14Y-166.65
X71.37Y-160.06
X71.679Y-243.561
X71.71Y-152.11
X71.81Y-161.63
X71.83Y-135.55
X71.87Y-157.82
X72.12Y-104.22
X72.45Y-166.73
X72.61Y-246.29
X72.94Y-178.73
X73.03Y-134.63
X73.07Y-128.23
X73.34Y-100.73
X73.61Y-150.21
X74.244Y-237.211
X74.27Y-241.021
X74.28Y-146.45
X74.31Y-133.11
X74.35Y-165.75
X75.53Y-145.78
X75.57Y-152.14
X75.57Y-153.65
X75.6Y-103.24
X75.61Y-117.82
X75.61Y-133.11
X75.61Y-165.75
X75.65Y-169.85
X76.21Y-155.9
X76.22Y-159.07
X76.78Y-145.19
X76.88Y-133.12
X77.22Y-153.98
X77.5Y-151.48
X77.76Y-156.25
X77.88Y-102.01
X78.01Y-159.15
X78.05Y-97.29
X78.09Y-145.15
X78.7Y-154.3
X79.18Y-115.93
X79.32Y-145.18
X79.35Y-103.92
X79.36Y-94.14
X79.36Y-151.46
X79.36Y-156.18
X79.36Y-167.29
X79.47Y-169.85
X80.35Y-175.0
X80.64Y-97.5
X81.01Y-72.59
X81.26Y-123.54
X81.6Y-174.0
X81.83Y-108.34
X82.26Y-116.02
X82.51Y-86.83
X82.51Y-105.11
X82.89Y-173.98
X82.9Y-106.74
X84.4Y-103.96
X84.43Y-108.02
X84.49Y-116.3
X84.74Y-135.66
X85.14Y-152.84
X85.37Y-151.43
X85.68Y-104.2
X86.33Y-145.82
X86.94Y-104.52
X87.08Y-101.4
X87.09Y-94.41
X87.68Y-157.83
X88.18Y-104.81
X88.65Y-121.71
X88.73Y-113.17
X88.84Y-157.89
X88.94Y-182.62
X89.48Y-185.12
X89.51Y-181.05
X89.53Y-105.06
X89.54Y-106.45
X89.6Y-101.48
X90.7Y-106.38
X90.805Y-190.271
X90.81Y-187.74
X92.08Y-106.4
X92.13Y-86.82
X92.19Y-40.62
X92.99Y-102.3
X93.34Y-110.62
X93.69Y-135.65
X93.95Y-192.18
X94.62Y-102.27
X94.68Y-40.59
X94.72Y-182.64
X95.23Y-107.73
X95.6Y-110.95
X95.82Y-86.77
X95.88Y-177.44
X95.89Y-178.8
X95.91Y-117.29
X96.78Y-169.0
X96.84Y-170.27
X97.13Y-147.39
X97.13Y-151.57
X97.18Y-248.666
X97.18Y-253.746
X97.23Y-115.06
X97.875Y-81.75
X97.92Y-84.96
X98.15Y-161.96
X98.425Y-74.45
X98.425Y-78.625
X99.1Y-164.21
X99.41Y-156.6
X99.82Y-86.77
X100.19Y-216.25
X100.2Y-223.11
X100.34Y-145.81
X100.65Y-165.16
X100.83Y-151.51
X100.97Y-161.05
X100.98Y-162.36
X101.04Y-159.74
X101.29Y-142.28
X101.57Y-156.96
X102.01Y-165.19
X102.23Y-162.26
X102.26Y-177.8
X102.28Y-113.17
X102.88Y-135.29
X102.89Y-171.47
X102.95Y-141.97
X103.25Y-165.22
X103.26Y-145.76
X103.59Y-216.83
X103.61Y-162.26
X103.79Y-158.84
X104.15Y-124.23
X104.19Y-147.43
X104.24Y-115.06
X104.51Y-145.82
X104.51Y-167.1
X104.57Y-141.68
X104.57Y-165.2
X104.81Y-233.43
X104.82Y-162.31
X104.826Y-197.891
X104.88Y-88.67
X104.91Y-178.74
X104.92Y-216.25
X105.76Y-101.07
X105.85Y-140.73
X106.04Y-162.28
X106.16Y-216.22
X106.76Y-88.68
X106.8Y-165.48
X107.05Y-112.12
X107.07Y-101.19
X107.26Y-178.45
X107.26Y-182.71
X107.34Y-162.27
X107.38Y-214.6
X107.48Y-198.99
X107.49Y-108.81
X107.94Y-117.43
X108.0Y-119.2
X108.06Y-197.73
X108.34Y-101.04
X108.61Y-123.58
X108.7Y-88.67
X108.71Y-232.65
X108.75Y-200.26
X109.3Y-121.66
X109.58Y-107.68
X109.91Y-40.53
X109.93Y-197.76
X109.96Y-216.85
X110.59Y-112.79
X110.6Y-200.31
X111.13Y-107.36
X111.13Y-196.58
X111.16Y-234.0
X111.19Y-202.95
X111.25Y-183.27
X112.4Y-115.33
X112.43Y-213.73
X112.75Y-86.78
X113.05Y-123.02
X113.15Y-125.17
X113.35Y-204.24
X113.74Y-115.37
X114.13Y-216.81
X114.61Y-193.41
X114.95Y-122.91
X114.96Y-115.36
X115.01Y-214.95
X115.06Y-232.96
X115.55Y-209.25
X116.31Y-115.35
X117.14Y-170.19
X117.45Y-199.03
X117.46Y-174.98
X117.46Y-181.94
X117.46Y-185.5
X117.55Y-159.81
X117.58Y-115.35
X119.05Y-183.51
X119.05Y-187.33
X119.06Y-172.52
X119.77Y-211.45
X120.0Y-210.17
X120.01Y-213.65
X120.1Y-155.96
X120.37Y-192.16
X120.95Y-158.82
X121.29Y-189.54
X121.31Y-178.74
X121.34Y-217.49
X122.0Y-160.41
X122.01Y-172.52
X123.19Y-214.21
X123.52Y-209.27
X123.82Y-159.78
X123.84Y-204.14
X123.88Y-170.2
X124.24Y-211.78
X124.44Y-189.33
X125.02Y-202.24
X125.11Y-152.52
X125.21Y-108.98
X125.76Y-219.34
X125.8Y-193.44
X126.09Y-131.84
X126.27Y-183.61
X126.33Y-177.55
X126.4Y-159.76
X126.72Y-152.18
X127.66Y-170.24
X127.72Y-216.73
X127.72Y-220.71
X128.33Y-151.82
X128.88Y-158.51
X129.03Y-170.55
X129.81Y-151.49
X130.26Y-112.14
X131.46Y-151.21
X131.51Y-197.16
X132.7Y-156.94
X132.74Y-139.51
X133.1Y-150.9
X133.5Y-197.14
X134.02Y-110.21
X134.43Y-139.44
X134.69Y-150.57
X134.77Y-118.56
X135.29Y-215.57
X135.31Y-108.37
X135.32Y-173.13
X135.44Y-154.68
X135.54Y-195.35
X136.35Y-150.27
X136.73Y-78.63
X136.92Y-185.15
X137.3Y-160.46
X137.81Y-105.15
X137.85Y-177.52
X137.88Y-189.63
X137.89Y-150.24
X138.04Y-193.38
X138.44Y-171.1
X138.5Y-83.71
X138.86Y-185.74
X139.08Y-178.16
X139.17Y-105.27
X139.18Y-139.45
X139.52Y-150.22
X139.85Y-108.31
X140.4Y-83.71
X140.43Y-105.27
X140.47Y-185.79
X140.49Y-123.92
X141.05Y-150.22
X141.06Y-108.98
X141.13Y-118.56
X141.68Y-78.63
X141.72Y-105.07
X141.75Y-107.7
X141.75Y-178.11
X142.33Y-185.46
X142.34Y-86.85
X142.71Y-85.26
X142.97Y-105.2
X142.99Y-108.95
X143.13Y-158.21
X143.6Y-140.17
X143.637Y-150.343
X144.24Y-108.65
X144.24Y-185.47
X144.26Y-88.68
X144.67Y-87.28
X144.9Y-86.17
X145.48Y-233.36
X145.49Y-140.18
X145.83Y-83.75
X146.1Y-148.97
X146.13Y-185.47
X146.15Y-150.22
X146.16Y-85.52
X146.81Y-88.09
X147.447Y-154.737
X147.47Y-140.1
X147.49Y-148.38
X147.55Y-109.06
X147.7Y-185.46
X148.01Y-98.21
X148.75Y-171.81
X149.27Y-185.43
X149.32Y-108.66
X149.32Y-148.3
X149.36Y-140.17
X149.93Y-83.63
X149.93Y-85.51
X149.97Y-189.63
X150.03Y-177.85
X150.089Y-97.688
X150.93Y-185.44
X151.15Y-140.1
X151.19Y-108.36
X151.21Y-83.63
X151.25Y-148.36
X151.26Y-215.61
X151.3Y-66.54
X151.46Y-178.15
X151.81Y-193.46
X152.2Y-82.04
X152.46Y-148.32
X152.68Y-189.28
X153.11Y-89.33
X153.12Y-140.09
X153.21Y-213.21
X153.22Y-109.05
X153.71Y-178.16
X153.78Y-147.74
X154.37Y-88.61
X154.71Y-189.57
X154.97Y-140.12
X154.98Y-108.29
X155.07Y-68.4
X155.66Y-178.18
X155.69Y-87.36
X156.25Y-195.36
X156.37Y-181.94
X156.61Y-93.44
X156.63Y-95.03
X156.64Y-150.6
X156.94Y-140.12
X156.96Y-87.38
X157.48Y-66.54
X157.89Y-150.6
X158.25Y-188.32
X158.28Y-195.3
X158.83Y-140.13
X159.1Y-150.6
X159.45Y-76.0
X159.47Y-78.03
X160.16Y-188.03
X160.21Y-195.3
X160.4Y-150.55
X160.73Y-167.39
X160.75Y-140.06
X160.76Y-212.89
X160.77Y-95.35
X160.79Y-93.79
X160.84Y-83.67
X161.7Y-195.38
X161.71Y-150.63
X161.74Y-188.03
X162.65Y-140.13
X162.65Y-167.46
X162.71Y-60.21
X162.98Y-150.6
X163.2Y-213.07
X163.63Y-188.0
X163.89Y-60.19
X163.97Y-168.02
X164.26Y-150.66
X164.48Y-74.81
X164.61Y-140.09
X164.83Y-183.55
X164.89Y-94.1
X164.91Y-95.72
X165.16Y-60.15
X165.24Y-175.67
X165.55Y-150.6
X165.56Y-168.32
X165.76Y-74.81
X165.9Y-140.13
X165.93Y-43.02
X166.46Y-60.19
X166.54Y-213.04
X166.89Y-168.62
X167.06Y-74.8
X167.08Y-192.79
X167.15Y-140.13
X167.16Y-158.21
X167.81Y-60.54
X168.13Y-168.98
X168.33Y-74.84
X168.36Y-215.62
X168.44Y-50.61
X168.44Y-52.84
X168.44Y-83.71
X168.44Y-89.38
X168.48Y-141.39
X168.5Y-140.1
X169.06Y-94.41
X169.08Y-59.47
X169.1Y-96.0
X169.11Y-187.35
X169.45Y-168.97
X169.62Y-74.86
X169.79Y-60.7
X170.62Y-204.24
X170.73Y-168.93
X170.88Y-74.84
X170.94Y-187.06
X170.95Y-43.02
X170.95Y-53.2
X170.96Y-136.0
X171.04Y-60.76
X171.9Y-50.35
X171.94Y-178.2
X171.98Y-165.85
X171.99Y-164.21
X172.03Y-162.93
X172.19Y-74.85
X172.26Y-136.01
X172.3Y-60.77
X172.49Y-53.57
X172.6Y-158.2
X172.62Y-186.74
X173.17Y-96.27
X173.21Y-94.69
X173.48Y-74.8
X173.49Y-135.97
X173.5Y-50.29
X173.52Y-162.28
X173.58Y-60.73
X174.12Y-167.05
X174.14Y-171.9
X174.24Y-186.38
X174.7Y-74.81
X174.73Y-106.51
X174.73Y-136.02
X175.18Y-139.78
X175.41Y-149.01
X175.43Y-150.28
X175.44Y-151.57
X175.45Y-171.83
X175.46Y-152.82
X175.48Y-154.13
X175.98Y-43.02
X175.99Y-211.3
X176.0Y-74.83
X176.02Y-215.62
X176.06Y-147.78
X176.1Y-53.73
X176.12Y-192.78
X176.4Y-139.77
X177.23Y-81.13
X177.23Y-83.7
X177.25Y-95.02
X177.26Y-211.25
X177.28Y-82.42
X177.3Y-96.65
X177.32Y-147.4
X177.34Y-84.97
X177.64Y-139.79
X178.54Y-258.86
X178.55Y-211.26
X178.68Y-135.99
X178.92Y-139.78
X179.73Y-114.13
X179.83Y-211.27
X179.85Y-106.78
X180.14Y-95.36
X180.16Y-96.92
X180.17Y-199.97
X180.19Y-138.53
X180.21Y-139.8
X180.52Y-181.91
X180.53Y-175.67
X181.1Y-204.22
X181.11Y-43.02
X181.13Y-258.86
X181.17Y-211.28
X181.21Y-158.18
X181.24Y-136.04
X181.4Y-151.53
X181.4Y-152.78
X181.48Y-138.54
X181.71Y-147.67
X181.75Y-150.27
X181.79Y-149.01
X182.05Y-106.16
X182.34Y-93.79
X182.37Y-211.3
X182.42Y-123.61
X182.63Y-95.4
X182.75Y-138.56
X182.8Y-193.2
X182.84Y-137.28
X182.84Y-153.07
X182.85Y-135.97
X183.08Y-147.44
X183.26Y-106.15
X183.59Y-68.64
X183.69Y-211.32
X183.85Y-95.4
X184.77Y-96.41
X184.8Y-97.61
X184.83Y-68.33
X184.83Y-124.25
X184.91Y-128.35
X184.98Y-147.63
X185.53Y-162.36
X186.12Y-97.6
X186.16Y-67.99
X186.77Y-78.61
X186.78Y-76.08
X186.79Y-77.36
X186.8Y-74.76
X186.8Y-114.12
X186.85Y-65.27
X187.21Y-179.41
X187.21Y-209.62
X187.23Y-173.81
X187.39Y-97.6
X187.41Y-67.71
X187.42Y-123.61
X187.55Y-159.37
X187.85Y-118.62
X188.1Y-65.23
X188.44Y-114.46
X188.64Y-97.65
X189.33Y-175.67
X189.39Y-65.28
X189.86Y-109.76
X189.99Y-204.21
X189.99Y-215.63
X190.0Y-211.19
X190.02Y-97.64
X190.05Y-152.84
X190.07Y-151.52
X190.07Y-181.94
X190.68Y-65.29
X190.7Y-149.64
X190.71Y-129.3
X190.71Y-148.35
X191.22Y-78.62
X191.36Y-97.61
X191.4Y-218.12
X191.45Y-55.74
X191.58Y-114.49
X192.405Y-209.677
X192.95Y-111.63
X193.18Y-144.86
X193.23Y-143.57
X193.24Y-118.0
X193.77Y-58.31
X194.23Y-113.87
X194.23Y-209.02
X194.82Y-109.73
X194.87Y-143.89
X195.199Y-176.276
X195.199Y-179.451
X195.42Y-208.66
X195.78Y-191.31
X195.8Y-59.44
X195.86Y-172.49
X196.3Y-92.51
X196.34Y-76.13
X196.36Y-142.64
X196.37Y-51.943
X196.39Y-143.85
X196.723Y-209.677
X196.79Y-208.33
X197.0Y-154.41
X197.01Y-118.61
X197.05Y-153.11
X197.08Y-151.88
X197.714Y-159.842
X198.91Y-92.18
X198.96Y-90.26
X199.3Y-154.41
X199.32Y-151.85
X199.33Y-153.18
X199.9Y-118.97
X199.96Y-145.82
X200.56Y-128.36
X200.789Y-99.477
X200.89Y-129.95
X200.92Y-208.03
X201.43Y-91.86
X201.52Y-83.73
X201.52Y-151.59
X201.54Y-204.21
X201.55Y-48.73
X201.6Y-152.86
X202.16Y-109.07
X202.23Y-208.01
X202.489Y-172.491
X202.489Y-176.301
X202.77Y-102.37
X202.87Y-204.22
X203.4Y-151.54
X203.41Y-48.81
X204.02Y-88.69
X204.03Y-84.0
X204.06Y-82.74
X204.07Y-66.51
X204.08Y-154.08
X204.1Y-129.39
X204.14Y-204.22
X204.16Y-192.79
X204.38Y-77.99
X205.35Y-109.38
X205.36Y-151.88
X205.37Y-202.95
X205.41Y-204.21
X205.68Y-148.07
X205.74Y-145.17
X205.74Y-183.84
X206.09Y-119.21
X206.33Y-174.06
X206.56Y-149.0
X206.6Y-84.31
X206.6Y-128.02
X206.61Y-65.91
X206.62Y-88.97
X206.63Y-48.15
X206.64Y-83.02
X206.64Y-100.8
X206.64Y-147.12
X206.71Y-202.92
X206.77Y-114.22
X206.95Y-145.21
X207.32Y-55.75
X207.6Y-183.94
X207.86Y-92.84
X207.9Y-100.55
X207.9Y-152.85
X207.91Y-98.97
X207.92Y-147.1
X207.95Y-202.94
X208.14Y-149.37
X208.18Y-48.49
X208.19Y-145.13
X208.52Y-160.75
X208.83Y-89.6
X208.89Y-183.89
X209.06Y-83.67
X209.11Y-47.52
X209.2Y-243.68
X209.24Y-202.95
X209.75Y-160.36
X209.86Y-198.48
X210.16Y-201.0
X210.41Y-46.89
X210.41Y-96.3
X210.43Y-63.98
X210.48Y-162.91
X210.67Y-135.7
X210.8Y-123.99
X210.82Y-183.91
X211.07Y-160.04
X211.14Y-198.43
X211.4Y-200.98
X211.66Y-76.05
X211.67Y-64.62
X211.67Y-83.67
X211.67Y-119.18
X211.72Y-202.93
X211.72Y-235.39
X211.85Y-114.24
X211.94Y-135.62
X212.25Y-159.75
X212.38Y-198.41
X212.44Y-174.42
X212.71Y-182.67
X212.94Y-93.16
X213.03Y-199.74
X213.09Y-173.13
X213.26Y-135.69
X213.66Y-197.19
X213.69Y-198.44
X213.85Y-89.63
X214.09Y-83.64
X214.14Y-146.41
X214.19Y-81.79
X214.249Y-208.686
X214.3Y-202.946
X214.6Y-181.38
X214.92Y-196.51
X215.11Y-159.11
X215.45Y-156.59
X215.46Y-96.01
X215.46Y-135.3
X215.46Y-155.37
X215.49Y-154.12
X216.1Y-169.32
X216.4Y-159.09
X216.49Y-181.68
X216.66Y-152.82
X216.67Y-154.06
X216.68Y-64.21
X216.69Y-156.6
X216.76Y-157.89
X216.77Y-66.51
X216.77Y-83.65
X217.1Y-192.21
X217.12Y-189.62
X217.13Y-190.95
X217.34Y-135.03
X217.41Y-204.28
X217.853Y-146.357
X217.99Y-108.45
X218.01Y-93.44
X218.36Y-187.49
X218.6Y-151.2
X219.28Y-63.98
X219.3Y-83.67
X219.31Y-243.68
X219.53Y-148.06
X219.55Y-134.66
X219.57Y-146.41
X219.88Y-96.65
X221.22Y-204.24
X221.85Y-66.24
X221.85Y-96.67
X221.86Y-63.97
X221.86Y-95.04
X222.48Y-204.21
X223.84Y-204.19
X224.39Y-65.94
X224.4Y-175.69
X225.04Y-183.93
X225.51Y-194.47
X225.71Y-192.81
X226.28Y-183.97
X226.7Y-171.61
X226.73Y-194.45
X226.92Y-189.72
X226.95Y-159.78
X226.95Y-164.26
X226.96Y-191.88
X226.98Y-203.6
X226.99Y-65.27
X226.99Y-211.91
X227.07Y-114.25
X227.07Y-176.34
X227.28Y-187.81
X227.66Y-183.95
X227.93Y-194.5
X228.16Y-164.9
X228.17Y-191.61
X228.23Y-176.31
X228.86Y-74.81
X228.9Y-228.45
X229.46Y-79.86
X229.48Y-65.93
X229.49Y-176.36
X229.5Y-58.28
X229.52Y-164.21
X229.54Y-159.8
X229.8Y-127.78
X230.08Y-189.72
X230.13Y-74.84
X230.21Y-232.52
X230.23Y-228.4
X230.78Y-164.87
X230.8Y-167.46
X230.81Y-206.77
X230.82Y-168.73
X230.89Y-176.38
X231.44Y-74.82
X231.48Y-232.51
X231.53Y-228.44
X231.68Y-153.46
X231.73Y-70.99
X232.04Y-164.89
X232.04Y-215.36
X232.07Y-50.04
X232.08Y-159.84
X232.08Y-176.36
X232.09Y-167.44
X232.13Y-45.59
X232.7Y-228.41
X232.71Y-74.83
X232.71Y-232.6
X233.33Y-128.06
X233.38Y-59.24
X233.39Y-215.04
X233.91Y-153.82
X234.04Y-232.59
X234.28Y-60.55
X234.31Y-169.05
X234.58Y-164.91
X234.58Y-194.21
X234.59Y-159.81
X234.62Y-199.14
X234.65Y-189.8
X234.66Y-55.11
X234.67Y-173.86
X235.3Y-61.5
X235.88Y-128.07
X236.47Y-187.17
X236.78Y-153.82
X237.07Y-155.09
X237.1Y-55.07
X237.14Y-159.5
X237.17Y-199.5
X237.18Y-164.58
X237.185Y-258.953
X237.51Y-118.0
X237.51Y-183.98
X238.41Y-234.8
X238.44Y-188.16
X238.46Y-128.39
X238.51Y-114.25
X238.52Y-194.24
X238.74Y-168.43
X239.67Y-53.21
X239.67Y-56.92
X239.67Y-134.77
X240.06Y-168.36
X240.31Y-112.65
X240.31Y-166.47
X240.33Y-170.67
X240.89Y-71.6
X240.89Y-185.94
X241.59Y-155.46
X241.6Y-135.08
X241.63Y-171.62
X241.67Y-48.75
X242.16Y-57.32
X242.18Y-51.95
X242.27Y-159.55
X242.82Y-184.6
X242.84Y-171.66
X243.48Y-176.42
X243.49Y-135.39
X244.12Y-171.64
X244.2Y-189.05
X244.76Y-159.81
X244.77Y-55.71
X244.82Y-50.01
X245.05Y-154.49
X245.4Y-135.73
X245.98Y-197.96
X246.05Y-55.72
X246.11Y-48.1
X246.72Y-159.84
X247.02Y-179.26
X247.28Y-88.71
X247.33Y-55.73
X247.35Y-48.13
X247.55Y-196.08
X247.92Y-135.78
X247.95Y-165.57
X248.36Y-128.69
X248.53Y-159.22
X248.55Y-157.92
X248.6Y-48.11
X248.6Y-55.72
X249.21Y-165.62
X249.28Y-189.42
X249.56Y-135.4
X249.8Y-186.86
X249.86Y-55.69
X249.87Y-88.69
X249.88Y-48.1
X250.47Y-151.02
X250.47Y-166.28
X250.52Y-172.61
X251.1Y-174.52
X251.14Y-48.13
X251.14Y-55.72
X251.15Y-167.54
X251.74Y-172.61
X252.35Y-48.08
X252.37Y-156.08
X252.37Y-167.82
X252.38Y-55.72
X252.39Y-88.69
X252.48Y-79.85
X252.7Y-103.08
X253.38Y-184.6
X253.63Y-48.11
X253.705Y-55.765
X254.0Y-103.03
X254.31Y-88.13
X254.95Y-49.34
X254.95Y-152.75
X254.98Y-55.71
X255.04Y-160.16
X255.22Y-103.04
X255.6Y-179.28
X256.24Y-88.05
X256.25Y-55.72
X256.49Y-102.98
X256.86Y-179.28
X257.47Y-98.31
X257.47Y-172.59
X257.52Y-60.13
X257.52Y-158.32
X257.53Y-88.72
X257.55Y-79.85
X257.8Y-102.99
X258.12Y-179.25
X258.76Y-98.28
X258.8Y-60.81
X259.09Y-103.02
X259.38Y-179.22
X260.01Y-98.28
X260.02Y-55.04
X260.03Y-51.95
X260.03Y-150.37
X260.04Y-88.72
X260.05Y-101.48
X260.07Y-157.41
X260.08Y-158.64
X260.38Y-103.04
X261.31Y-60.8
X261.31Y-98.29
X261.36Y-101.48
X261.64Y-179.23
X261.69Y-183.12
X262.59Y-98.29
X262.62Y-101.52
X262.62Y-156.68
X262.636Y-259.029
X262.64Y-89.36
X262.9Y-179.24
X262.92Y-150.04
X262.97Y-183.05
X263.22Y-191.67
X263.86Y-98.31
X263.87Y-96.98
X263.88Y-101.51
X264.21Y-179.26
X264.262Y-62.154
X264.6Y-89.39
X265.1Y-157.37
X265.17Y-97.02
X265.2Y-101.45
X265.49Y-149.73
X265.53Y-179.28
X265.811Y-183.388
X266.43Y-89.66
X266.45Y-97.02
X266.78Y-179.28
X267.7Y-142.04
X267.73Y-154.86
X268.0Y-179.26
X268.32Y-115.51
X268.35Y-98.27
X268.4Y-149.43
X269.06Y-184.62
X269.33Y-179.24
X269.49Y-95.81
X269.57Y-97.01
X269.58Y-157.37
X269.675Y-98.225
X270.2Y-170.67
X270.29Y-79.83
X270.59Y-178.96
X270.86Y-131.93
X271.2Y-143.38
X271.46Y-55.09
X271.57Y-53.2
X271.91Y-178.94
X272.17Y-131.97
X272.25Y-87.83
X272.44Y-169.73
X272.74Y-149.09
X272.78Y-109.71
X272.78Y-143.39
X272.79Y-115.33
X272.96Y-78.05
X273.04Y-96.39
X273.456Y-185.953
X273.74Y-85.92
X274.07Y-136.05
X274.1Y-148.49
X274.41Y-96.42
X274.7Y-171.65
X274.7Y-185.94
X274.72Y-90.57
X274.72Y-191.66
X274.73Y-173.26
X275.27Y-92.04
X275.29Y-124.31
X275.29Y-159.52
X275.3Y-170.07
X275.35Y-144.65
X275.36Y-157.35
X275.37Y-178.3
X275.38Y-79.83
X275.38Y-108.1
X275.43Y-110.38
X275.65Y-96.37
X275.97Y-185.31
X275.98Y-186.91
X275.98Y-191.67
X276.32Y-63.74
X276.64Y-145.21
X276.67Y-125.54
X276.67Y-128.12
X276.9Y-75.75
X276.95Y-96.37
X276.96Y-95.09
X276.97Y-82.8
X277.27Y-185.32
X277.32Y-92.27
X277.68Y-62.44
X277.69Y-63.71
X277.69Y-109.97
X277.81Y-158.03
X277.81Y-159.85
X277.85Y-129.73
X277.93Y-182.76
X278.14Y-75.42
X278.22Y-90.29
X278.54Y-82.8
X278.57Y-92.61
X278.92Y-62.46
X279.14Y-169.41
X279.16Y-172.58
X279.22Y-128.14
X279.34Y-75.08
X280.14Y-82.8
X280.19Y-61.2
X280.19Y-62.48
X280.41Y-192.04
X280.42Y-157.37
X280.42Y-159.94
X280.44Y-162.44
X280.67Y-74.76
X281.12Y-113.51
X281.46Y-61.17
X281.67Y-191.69
X281.99Y-74.45
X282.36Y-154.16
X282.64Y-88.79
X282.7Y-61.2
X282.93Y-126.26
X282.94Y-161.17
X282.96Y-91.38
X282.99Y-90.04
X283.0Y-163.13
X283.52Y-82.12
X283.59Y-80.85
X283.62Y-79.59
X284.21Y-126.21
X284.37Y-122.57
X285.51Y-131.67
X285.52Y-194.22
X285.53Y-169.45
X285.55Y-161.75
X285.55Y-164.93
X285.66Y-145.24
X285.78Y-60.85
X286.12Y-156.75
X286.73Y-196.1
X286.76Y-127.54
X287.06Y-60.86
X287.4Y-198.01
X287.42Y-122.57
X287.48Y-157.65
X287.5Y-159.3
X287.74Y-172.57
X287.85Y-199.57
X288.04Y-128.74
X288.04Y-140.52
X288.11Y-145.26
X288.32Y-60.84
X289.27Y-59.9
X289.42Y-174.27
X289.65Y-140.46
X289.67Y-129.77
X289.95Y-185.98
X290.56Y-61.51
X290.65Y-174.25
X290.67Y-164.95
X290.67Y-166.86
X290.69Y-168.77
X290.7Y-154.83
X290.7Y-161.05
X290.7Y-191.01
X290.71Y-192.35
X290.89Y-140.45
X291.24Y-130.07
X291.98Y-177.66
X292.48Y-59.61
X292.61Y-189.78
X293.08Y-154.32
X293.17Y-48.1
X293.19Y-140.21
X293.19Y-150.41
X293.2Y-130.09
X293.27Y-161.94
X293.81Y-59.54
X293.82Y-55.78
X293.88Y-172.62
X294.38Y-43.71
X294.49Y-185.99
X294.843Y-157.048
X295.12Y-192.4
X295.66Y-43.69
X295.68Y-140.2
X295.72Y-55.72
X295.74Y-150.08
X295.79Y-191.04
X296.66Y-162.44
X296.7Y-168.8
X296.73Y-167.21
X296.92Y-43.68
X297.0Y-55.71
X297.55Y-204.39
X297.64Y-173.62
X298.0Y-160.47
X298.05Y-104.42
X298.26Y-43.7
X298.26Y-149.77
X298.27Y-139.55
X298.29Y-55.71
X298.81Y-191.09
X298.9Y-178.28
X298.93Y-90.02
X298.96Y-86.78
X299.48Y-43.67
X299.51Y-103.4
X299.53Y-55.72
X299.63Y-101.24
X299.695Y-165.557
X299.9Y-185.67
X299.93Y-160.48
X300.76Y-43.67
X300.8Y-101.13
X300.82Y-55.72
X300.82Y-88.36
X300.83Y-149.49
X300.84Y-139.55
X300.85Y-90.63
X301.17Y-185.65
X301.18Y-173.62
X302.04Y-70.73
X302.06Y-91.07
X302.1Y-171.38
X302.11Y-189.16
X302.12Y-55.68
X302.12Y-165.25
X302.13Y-160.49
X302.14Y-43.69
X302.14Y-166.58
X302.15Y-104.68
X302.16Y-190.43
X302.78Y-101.89
X303.05Y-49.02
X303.05Y-98.96
X303.32Y-86.78
X303.34Y-70.68
X303.37Y-55.71
X303.41Y-149.16
X303.43Y-91.04
X303.43Y-190.43
X303.99Y-109.7
X304.09Y-119.91
X304.56Y-70.67
X304.63Y-55.69
X304.7Y-190.44
X305.27Y-102.77
X305.54Y-88.7
X305.85Y-70.67
X305.87Y-59.48
X305.89Y-123.06
X305.9Y-92.61
X305.92Y-100.89
X305.93Y-148.83
X305.94Y-119.3
X305.94Y-190.42
X305.97Y-109.63
X306.2Y-98.29
X306.25Y-164.96
X306.26Y-166.28
X306.26Y-170.09
X306.27Y-168.79
X306.3Y-167.53
X306.54Y-142.74
X307.06Y-62.75
X307.1Y-70.63
X307.16Y-59.52
X307.5Y-98.29
X307.77Y-101.15
X307.89Y-84.33
X308.07Y-71.61
X308.39Y-72.89
X308.41Y-62.71
X308.43Y-59.46
X308.46Y-140.87
X308.53Y-148.52
X308.69Y-99.57
X308.71Y-154.22
X309.17Y-119.27
X309.58Y-49.04
X309.67Y-73.91
X309.68Y-62.71
X309.73Y-55.71
X310.28Y-206.94
X310.28Y-214.59
X310.45Y-86.26
X310.95Y-74.51
X310.97Y-62.71
X311.07Y-100.93
X311.27Y-90.94
X311.28Y-93.8
X311.3Y-129.77
X311.44Y-191.05
X311.59Y-127.2
X312.23Y-62.75
X312.24Y-75.78
X312.26Y-169.78
X312.56Y-93.81
X312.6Y-90.91
X312.6Y-173.61
X312.83Y-96.72
X312.85Y-181.55
X312.86Y-180.21
X312.93Y-114.81
X312.95Y-178.97
X313.25Y-163.7
X313.56Y-126.9
X313.6Y-147.88
X313.82Y-93.83
X313.9Y-90.92
X314.1Y-125.63
X314.12Y-96.68
X314.17Y-55.75
X314.18Y-128.19
X314.26Y-84.33
X314.86Y-142.14
X314.89Y-163.69
X315.09Y-168.85
X315.09Y-172.02
X315.13Y-170.44
X315.15Y-181.55
X315.16Y-93.91
X315.17Y-90.96
X315.48Y-96.65
X315.5Y-180.26
X316.1Y-104.06
X316.11Y-145.33
X316.12Y-174.9
X316.15Y-141.48
X316.18Y-98.95
X316.34Y-124.96
X316.45Y-90.94
X316.45Y-94.14
X316.72Y-86.26
X316.73Y-96.74
X318.033Y-171.983
X318.04Y-168.16
X318.62Y-123.98
X318.62Y-145.03
X318.62Y-149.72
X318.66Y-96.25
X318.67Y-104.06
X318.719Y-191.135
X319.22Y-176.77
X319.94Y-166.34
X320.0Y-163.06
X320.24Y-114.89
X320.49Y-176.77
X320.66Y-180.92
X320.87Y-123.08
X321.16Y-124.36
X321.21Y-150.42
X321.22Y-144.7
X321.8Y-176.75
X321.92Y-180.92
X323.12Y-176.75
X323.74Y-114.57
X323.74Y-144.41
X323.75Y-99.57
X323.78Y-130.72
X323.79Y-150.36
X324.4Y-95.14
X324.4Y-170.77
X324.47Y-172.06
X324.47Y-176.78
X324.48Y-168.18
X324.49Y-169.48
X325.01Y-97.98
X326.28Y-98.02
X326.3Y-132.65
X326.3Y-144.08
X326.59Y-99.31
X326.85Y-205.73
X326.96Y-140.57
X327.5Y-97.03
X327.6Y-116.74
X328.23Y-93.9
X328.42Y-206.06
X328.75Y-192.96
X328.81Y-129.47
X328.84Y-143.79
X330.03Y-206.35
X330.16Y-143.47
X330.18Y-132.0
X330.42Y-191.43
X330.84Y-109.11
X330.85Y-110.38
X331.38Y-129.47
X331.42Y-143.07
X331.43Y-149.82
X331.45Y-107.83
X332.11Y-171.67
X332.12Y-131.97
X332.13Y-170.43
X332.34Y-106.85
X332.66Y-149.84
X332.72Y-167.86
X332.73Y-169.15
X332.78Y-166.57
X333.39Y-105.92
X333.4Y-132.62
X333.94Y-129.47
X333.94Y-149.82
X333.97Y-178.39
X334.29Y-97.33
X334.3Y-99.89
X334.3Y-104.92
X334.31Y-93.5
X334.31Y-98.6
X334.32Y-94.77
X334.32Y-96.08
X334.34Y-102.47
X334.36Y-101.14
X334.36Y-103.72
X334.63Y-92.25
X334.64Y-177.12
X334.86Y-88.43
X334.91Y-90.96
X334.93Y-89.73
X334.94Y-175.81
X334.97Y-160.81
X335.19Y-87.11
X335.23Y-174.55
X335.32Y-162.48
X335.5Y-85.83
X335.52Y-79.6
X335.52Y-82.1
X335.53Y-77.03
X335.53Y-78.32
X335.53Y-84.65
X335.54Y-83.41
X335.56Y-80.85
X335.56Y-173.27
X335.87Y-171.98
X336.46Y-179.7
X336.49Y-177.1
X336.52Y-178.38
X336.76Y-77.06
X336.88Y-187.92
X337.1Y-186.65
X337.11Y-180.91
X337.21Y-72.898
X337.5Y-185.36
X337.75Y-182.18
X338.08Y-77.03
X339.31Y-77.01
X339.32Y-75.71
X342.621Y-153.289
T3
X118.688Y-63.34
X118.688Y-68.42
X121.184Y-63.247
X121.184Y-68.327
X253.568Y-210.718
X257.0Y-207.518
X257.0Y-210.058
X260.76Y-207.518
X260.76Y-210.058
X268.8Y-61.96
X273.88Y-61.96
X275.3Y-88.737
X275.32Y-86.117
X280.38Y-88.737
X280.4Y-86.117
T4
X42.54Y-196.53
X45.08Y-196.53
X46.15Y-106.39
X46.15Y-114.01
X46.15Y-119.06
X46.15Y-126.68
X46.23Y-91.13
X46.23Y-98.75
X47.57Y-200.28
X47.57Y-210.44
X47.62Y-196.53
X48.69Y-106.39
X48.69Y-114.01
X48.69Y-119.06
X48.69Y-126.68
X48.77Y-91.13
X48.77Y-98.75
X50.12Y-200.28
X50.12Y-210.44
X50.13Y-197.85
X51.23Y-106.39
X51.23Y-114.01
X51.23Y-119.06
X51.23Y-126.68
X51.31Y-91.13
X51.31Y-98.75
X52.65Y-200.31
X52.65Y-210.47
X52.67Y-197.85
X53.77Y-106.39
X53.77Y-114.01
X53.77Y-119.06
X53.77Y-126.68
X53.85Y-91.13
X53.85Y-98.75
X54.49Y-179.98
X55.21Y-197.85
X56.31Y-106.39
X56.31Y-114.01
X56.31Y-119.06
X56.31Y-126.68
X56.39Y-91.13
X56.39Y-98.75
X56.99Y-200.32
X56.99Y-210.48
X57.03Y-179.98
X58.85Y-106.39
X58.85Y-114.01
X58.85Y-119.06
X58.85Y-126.68
X58.93Y-91.13
X58.93Y-98.75
X59.57Y-179.98
X59.6Y-200.24
X59.6Y-210.4
X61.39Y-106.39
X61.39Y-114.01
X61.39Y-119.06
X61.39Y-126.68
X61.47Y-91.13
X61.47Y-98.75
X63.93Y-106.39
X63.93Y-114.01
X63.93Y-119.06
X63.93Y-126.68
X64.01Y-91.13
X64.01Y-98.75
X64.026Y-218.089
X64.09Y-40.51
X64.09Y-43.01
X66.47Y-106.39
X66.47Y-114.01
X66.47Y-119.06
X66.47Y-126.68
X66.55Y-91.13
X66.55Y-98.75
X66.638Y-40.515
X66.638Y-43.015
X69.01Y-106.39
X69.01Y-114.01
X69.01Y-119.06
X69.01Y-126.68
X69.026Y-218.089
X69.09Y-91.13
X69.09Y-98.75
X71.55Y-106.39
X71.55Y-114.01
X71.55Y-119.06
X71.55Y-126.68
X73.062Y-59.595
X73.062Y-62.095
X74.09Y-106.39
X74.09Y-114.01
X74.09Y-119.06
X74.09Y-126.68
X74.305Y-91.13
X74.305Y-98.75
X76.63Y-106.39
X76.63Y-114.01
X76.63Y-119.06
X76.63Y-126.68
X76.835Y-65.932
X76.845Y-63.417
X76.845Y-91.13
X76.845Y-98.75
X76.85Y-60.77
X76.855Y-58.377
X76.875Y-55.758
X79.17Y-106.39
X79.17Y-114.01
X79.17Y-119.06
X79.17Y-126.68
X79.335Y-65.932
X79.345Y-63.417
X79.35Y-60.77
X79.355Y-58.377
X79.375Y-55.758
X79.385Y-91.13
X79.385Y-98.75
X81.925Y-91.13
X81.925Y-98.75
X84.465Y-91.13
X84.465Y-98.75
X87.005Y-91.13
X87.005Y-98.75
X89.545Y-91.13
X89.545Y-98.75
X92.085Y-91.13
X92.085Y-98.75
X94.625Y-91.13
X94.625Y-98.75
X96.45Y-60.895
X96.45Y-65.895
X96.57Y-50.595
X96.57Y-55.595
X97.13Y-235.91
X97.13Y-238.41
X97.165Y-91.13
X97.165Y-98.75
X99.647Y-235.925
X99.647Y-238.425
X102.167Y-235.925
X102.167Y-238.425
X102.2Y-223.12
X102.2Y-227.0
X102.2Y-230.69
X102.225Y-91.13
X102.225Y-98.75
X103.5Y-219.39
X104.707Y-235.925
X104.707Y-238.425
X104.74Y-60.815
X104.74Y-65.815
X104.74Y-223.12
X104.74Y-227.0
X104.74Y-230.69
X104.765Y-91.13
X104.765Y-98.75
X104.8Y-50.545
X104.8Y-55.545
X106.04Y-219.39
X107.257Y-235.925
X107.257Y-238.425
X107.28Y-223.12
X107.28Y-227.0
X107.28Y-230.69
X107.305Y-91.13
X107.305Y-98.75
X108.58Y-219.39
X109.8Y-235.92
X109.8Y-238.42
X109.82Y-223.12
X109.82Y-227.0
X109.82Y-230.69
X109.845Y-91.13
X109.845Y-98.75
X111.12Y-219.39
X112.36Y-223.12
X112.36Y-227.0
X112.36Y-230.69
X112.385Y-91.13
X112.385Y-98.75
X112.397Y-235.905
X112.397Y-238.405
X112.404Y-145.72
X112.404Y-164.72
X112.43Y-50.55
X112.43Y-60.71
X113.66Y-219.39
X114.182Y-145.72
X114.182Y-164.72
X114.9Y-223.12
X114.9Y-227.0
X114.9Y-230.69
X114.925Y-91.13
X114.925Y-98.75
X114.95Y-235.9
X114.95Y-238.4
X114.97Y-50.55
X114.97Y-60.71
X115.96Y-145.72
X115.96Y-164.72
X116.2Y-219.39
X117.44Y-223.12
X117.44Y-227.0
X117.44Y-230.69
X117.465Y-91.13
X117.465Y-98.75
X117.477Y-235.895
X117.477Y-238.395
X117.51Y-50.55
X117.51Y-60.71
X117.738Y-145.72
X117.738Y-164.72
X118.74Y-219.39
X119.516Y-145.72
X119.516Y-164.72
X119.98Y-223.12
X119.98Y-227.0
X119.98Y-230.69
X120.0Y-235.88
X120.0Y-238.38
X120.05Y-50.55
X120.05Y-60.71
X120.64Y-73.43
X121.28Y-219.39
X121.294Y-145.72
X121.294Y-164.72
X122.517Y-235.875
X122.517Y-238.375
X122.52Y-223.12
X122.52Y-227.0
X122.52Y-230.69
X122.525Y-91.13
X122.525Y-98.75
X122.59Y-50.55
X122.59Y-60.71
X122.636Y-179.98
X122.636Y-198.98
X123.072Y-145.72
X123.072Y-164.72
X124.414Y-179.98
X124.414Y-198.98
X124.85Y-145.72
X124.85Y-164.72
X125.06Y-223.12
X125.06Y-227.0
X125.06Y-230.69
X125.065Y-91.13
X125.065Y-98.75
X125.08Y-235.95
X125.08Y-238.45
X125.09Y-83.55
X125.13Y-50.55
X125.13Y-60.71
X126.192Y-179.98
X126.192Y-198.98
X126.628Y-145.72
X126.628Y-164.72
X127.605Y-91.13
X127.605Y-98.75
X127.637Y-235.955
X127.637Y-238.455
X127.67Y-50.55
X127.67Y-60.71
X127.97Y-179.98
X127.97Y-198.98
X128.406Y-145.72
X128.406Y-164.72
X129.748Y-179.98
X129.748Y-198.98
X130.11Y-235.96
X130.11Y-238.46
X130.145Y-91.13
X130.145Y-98.75
X130.184Y-145.72
X130.184Y-164.72
X130.2Y-213.07
X130.2Y-220.69
X130.21Y-50.55
X130.21Y-60.71
X130.25Y-83.63
X131.526Y-179.98
X131.526Y-198.98
X131.58Y-175.06
X131.962Y-145.72
X131.962Y-164.72
X132.685Y-91.13
X132.685Y-98.75
X132.702Y-235.935
X132.702Y-238.435
X132.74Y-213.07
X132.74Y-220.69
X132.75Y-50.55
X132.75Y-60.71
X133.304Y-179.98
X133.304Y-198.98
X133.74Y-145.72
X133.74Y-164.72
X134.12Y-175.06
X134.63Y-73.43
X135.082Y-179.98
X135.082Y-198.98
X135.225Y-91.13
X135.225Y-98.75
X135.28Y-213.07
X135.28Y-220.69
X135.29Y-50.55
X135.29Y-60.71
X135.518Y-145.72
X135.518Y-164.72
X136.66Y-175.06
X136.86Y-179.98
X136.86Y-198.98
X137.296Y-145.72
X137.296Y-164.72
X137.765Y-91.13
X137.765Y-98.75
X137.82Y-213.07
X137.82Y-220.69
X137.83Y-50.55
X137.83Y-60.71
X138.638Y-179.98
X138.638Y-198.98
X139.074Y-145.72
X139.074Y-164.72
X139.2Y-175.06
X140.36Y-213.07
X140.36Y-220.69
X140.37Y-50.55
X140.37Y-60.71
X140.416Y-179.98
X140.416Y-198.98
X140.852Y-145.72
X140.852Y-164.72
X141.74Y-175.06
X142.194Y-179.98
X142.194Y-198.98
X142.63Y-145.72
X142.63Y-164.72
X142.885Y-228.29
X142.885Y-235.91
X142.9Y-213.07
X142.9Y-220.69
X143.972Y-179.98
X143.972Y-198.98
X144.408Y-145.72
X144.408Y-164.72
X145.425Y-228.29
X145.425Y-235.91
X145.44Y-213.07
X145.44Y-220.69
X145.75Y-179.98
X145.75Y-198.98
X146.186Y-145.72
X146.186Y-164.72
X147.528Y-179.98
X147.528Y-198.98
X147.964Y-145.72
X147.964Y-164.72
X147.965Y-228.29
X147.965Y-235.91
X147.98Y-213.07
X147.98Y-220.69
X149.306Y-179.98
X149.306Y-198.98
X149.742Y-145.72
X149.742Y-164.72
X150.505Y-228.29
X150.505Y-235.91
X151.084Y-179.98
X151.084Y-198.98
X151.52Y-145.72
X151.52Y-164.72
X152.862Y-179.98
X152.862Y-198.98
X153.045Y-228.29
X153.045Y-235.91
X153.298Y-145.72
X153.298Y-164.72
X154.64Y-179.98
X154.64Y-198.98
X155.076Y-145.72
X155.076Y-164.72
X155.585Y-228.29
X155.585Y-235.91
X155.67Y-248.65
X156.28Y-242.91
X156.418Y-179.98
X156.418Y-198.98
X156.854Y-145.72
X156.854Y-164.72
X158.125Y-228.29
X158.125Y-235.91
X158.196Y-179.98
X158.196Y-198.98
X158.632Y-145.72
X158.632Y-164.72
X159.974Y-179.98
X159.974Y-198.98
X160.41Y-145.72
X160.41Y-164.72
X160.76Y-48.08
X160.76Y-55.7
X161.28Y-242.91
X161.752Y-179.98
X161.752Y-198.98
X162.188Y-145.72
X162.188Y-164.72
X163.3Y-48.08
X163.3Y-55.7
X163.53Y-179.98
X163.53Y-198.98
X163.966Y-145.72
X163.966Y-164.72
X164.5Y-242.34
X164.5Y-244.84
X165.308Y-179.98
X165.308Y-198.98
X165.744Y-145.72
X165.744Y-164.72
X165.83Y-225.752
X165.83Y-248.65
X165.84Y-48.08
X165.84Y-55.7
X167.086Y-179.98
X167.086Y-198.98
X167.522Y-145.72
X167.522Y-164.72
X167.75Y-242.341
X167.75Y-244.841
X168.37Y-225.752
X168.38Y-48.08
X168.38Y-55.7
X168.39Y-248.63
X168.864Y-179.98
X168.864Y-198.98
X170.642Y-179.98
X170.642Y-198.98
X170.91Y-225.752
X170.92Y-48.08
X170.92Y-55.7
X170.95Y-243.59
X172.42Y-179.98
X172.42Y-198.98
X173.46Y-48.08
X173.46Y-55.7
X173.52Y-225.732
X174.198Y-179.98
X174.198Y-198.98
X174.74Y-251.19
X175.95Y-243.59
X175.976Y-179.98
X175.976Y-198.98
X176.0Y-48.08
X176.0Y-55.7
X176.06Y-225.732
X177.24Y-251.19
X177.754Y-179.98
X177.754Y-198.98
X178.55Y-248.63
X178.6Y-225.732
X183.61Y-223.24
X183.61Y-230.86
X186.15Y-223.24
X186.15Y-230.86
X188.69Y-223.24
X188.69Y-230.86
X191.23Y-223.24
X191.23Y-230.86
X193.77Y-223.24
X193.77Y-230.86
X196.31Y-223.24
X196.31Y-230.86
X196.44Y-70.97
X196.44Y-86.21
X198.85Y-223.24
X198.85Y-230.86
X198.98Y-70.97
X198.98Y-86.21
X201.52Y-70.97
X201.52Y-86.21
X204.06Y-50.54
X204.06Y-58.16
X204.06Y-70.97
X204.06Y-86.21
X206.6Y-50.54
X206.6Y-58.16
X206.6Y-70.97
X206.6Y-86.21
X209.14Y-50.54
X209.14Y-58.16
X209.14Y-70.97
X209.14Y-86.21
X211.68Y-50.54
X211.68Y-58.16
X211.68Y-70.97
X211.68Y-86.21
X214.22Y-50.54
X214.22Y-58.16
X214.22Y-70.97
X214.22Y-86.21
X216.76Y-50.54
X216.76Y-58.16
X216.76Y-70.97
X216.76Y-86.21
X219.3Y-50.54
X219.3Y-58.16
X219.3Y-70.97
X219.3Y-86.21
X221.84Y-50.54
X221.84Y-58.16
X221.84Y-70.97
X221.84Y-86.21
X224.38Y-50.54
X224.38Y-58.16
X224.38Y-70.97
X224.38Y-86.21
X226.92Y-50.54
X226.92Y-58.16
X226.92Y-70.97
X226.92Y-86.21
X227.02Y-147.16
X227.02Y-162.4
X229.46Y-70.97
X229.46Y-86.21
X229.56Y-147.16
X229.56Y-162.4
X230.79Y-223.73
X232.08Y-213.11
X232.08Y-220.73
X232.082Y-235.975
X232.082Y-238.475
X232.1Y-147.16
X232.1Y-162.4
X233.33Y-223.73
X234.594Y-204.26
X234.6Y-235.98
X234.6Y-238.48
X234.62Y-213.11
X234.62Y-220.73
X234.64Y-147.16
X234.64Y-162.4
X235.87Y-223.73
X237.11Y-84.89
X237.11Y-92.51
X237.134Y-204.26
X237.14Y-74.66
X237.14Y-82.28
X237.16Y-213.11
X237.16Y-220.73
X237.16Y-236.01
X237.16Y-238.51
X237.18Y-147.16
X237.18Y-162.4
X237.19Y-226.82
X237.19Y-231.85
X238.41Y-223.73
X239.65Y-84.89
X239.65Y-92.51
X239.667Y-236.015
X239.667Y-238.515
X239.674Y-204.26
X239.68Y-74.66
X239.68Y-82.28
X239.7Y-213.11
X239.7Y-220.73
X239.72Y-147.16
X239.72Y-162.4
X239.73Y-226.82
X239.73Y-231.85
X240.95Y-223.73
X242.19Y-84.89
X242.19Y-92.51
X242.207Y-236.025
X242.207Y-238.525
X242.214Y-204.26
X242.22Y-74.66
X242.22Y-82.28
X242.24Y-213.11
X242.24Y-220.73
X242.26Y-147.16
X242.26Y-162.4
X242.27Y-226.82
X242.27Y-231.85
X243.49Y-223.73
X244.72Y-236.02
X244.72Y-238.52
X244.73Y-84.89
X244.73Y-92.51
X244.754Y-204.26
X244.76Y-74.66
X244.76Y-82.28
X244.78Y-213.11
X244.78Y-220.73
X244.8Y-147.16
X244.8Y-162.4
X244.81Y-226.82
X244.81Y-231.85
X246.03Y-223.73
X247.27Y-84.89
X247.27Y-92.51
X247.294Y-204.26
X247.3Y-74.66
X247.3Y-82.28
X247.3Y-236.03
X247.3Y-238.53
X247.32Y-213.11
X247.32Y-220.73
X247.34Y-147.16
X247.34Y-162.4
X247.35Y-226.82
X247.35Y-231.85
X248.57Y-223.73
X249.81Y-84.89
X249.81Y-92.51
X249.834Y-204.26
X249.84Y-74.66
X249.84Y-82.28
X249.88Y-147.16
X249.88Y-162.4
X249.887Y-236.045
X249.887Y-238.545
X249.89Y-226.82
X249.89Y-231.85
X252.35Y-84.89
X252.35Y-92.51
X252.374Y-204.26
X252.38Y-74.66
X252.38Y-82.28
X252.39Y-43.05
X252.42Y-147.16
X252.42Y-162.4
X252.43Y-226.82
X252.43Y-231.85
X252.44Y-236.05
X252.44Y-238.55
X254.89Y-84.89
X254.89Y-92.51
X254.9Y-236.06
X254.9Y-238.56
X254.92Y-74.66
X254.92Y-82.28
X254.96Y-147.16
X254.96Y-162.4
X254.97Y-226.82
X254.97Y-231.85
X255.745Y-186.52
X255.745Y-194.14
X257.308Y-236.055
X257.308Y-238.555
X257.43Y-84.89
X257.43Y-92.51
X257.46Y-74.66
X257.46Y-82.28
X257.5Y-147.16
X257.5Y-162.4
X257.51Y-226.82
X257.51Y-231.85
X257.57Y-167.49
X257.57Y-175.11
X258.285Y-186.52
X258.285Y-194.14
X259.82Y-236.05
X259.82Y-238.55
X259.97Y-84.89
X259.97Y-92.51
X260.0Y-74.66
X260.0Y-82.28
X260.04Y-147.16
X260.04Y-162.4
X260.05Y-226.82
X260.05Y-231.85
X260.11Y-167.49
X260.11Y-175.11
X260.18Y-218.26
X260.825Y-186.52
X260.825Y-194.14
X262.498Y-236.045
X262.498Y-238.545
X262.51Y-84.89
X262.51Y-92.51
X262.54Y-74.66
X262.54Y-82.28
X262.55Y-43.05
X262.58Y-147.16
X262.58Y-162.4
X262.65Y-167.49
X262.65Y-175.11
X263.365Y-186.52
X263.365Y-194.14
X264.56Y-208.06
X265.05Y-84.89
X265.05Y-92.51
X265.08Y-74.66
X265.08Y-82.28
X265.12Y-147.16
X265.12Y-162.4
X265.15Y-236.03
X265.15Y-238.53
X265.19Y-167.49
X265.19Y-175.11
X265.905Y-186.52
X265.905Y-194.14
X267.59Y-84.89
X267.59Y-92.51
X267.62Y-74.66
X267.62Y-82.28
X267.66Y-147.16
X267.66Y-162.4
X267.73Y-167.49
X267.73Y-175.11
X267.743Y-236.015
X267.743Y-238.515
X268.445Y-186.52
X268.445Y-194.14
X269.72Y-208.14
X270.13Y-84.89
X270.13Y-92.51
X270.16Y-74.66
X270.16Y-82.28
X270.2Y-147.16
X270.2Y-162.4
X270.27Y-167.49
X270.27Y-175.11
X270.985Y-186.52
X270.985Y-194.14
X272.74Y-147.16
X272.74Y-162.4
X272.81Y-167.49
X272.81Y-175.11
X274.17Y-218.26
X275.28Y-147.16
X275.28Y-162.4
X275.35Y-167.49
X275.35Y-175.11
X277.89Y-167.49
X277.89Y-175.11
X280.43Y-167.49
X280.43Y-175.11
X282.97Y-167.49
X282.97Y-175.11
X283.09Y-180.17
X283.09Y-187.79
X285.51Y-167.49
X285.51Y-175.11
X285.63Y-180.17
X285.63Y-187.79
X285.655Y-137.055
X285.655Y-152.295
X288.17Y-180.17
X288.17Y-187.79
X288.195Y-137.055
X288.195Y-152.295
X290.71Y-180.17
X290.71Y-187.79
X290.735Y-137.055
X290.735Y-152.295
X293.25Y-180.17
X293.25Y-187.79
X293.275Y-137.055
X293.275Y-152.295
X295.79Y-180.17
X295.79Y-187.79
X295.815Y-137.055
X295.815Y-152.295
X298.33Y-180.17
X298.33Y-187.79
X298.355Y-137.055
X298.355Y-152.295
X300.895Y-137.055
X300.895Y-152.295
X303.435Y-137.055
X303.435Y-152.295
X305.975Y-137.055
X305.975Y-152.295
X308.515Y-137.055
X308.515Y-152.295
X311.055Y-137.055
X311.055Y-152.295
X313.595Y-137.055
X313.595Y-152.295
X316.135Y-137.055
X316.135Y-152.295
X316.165Y-119.25
X316.165Y-126.87
X318.675Y-137.055
X318.675Y-152.295
X318.705Y-119.25
X318.705Y-126.87
X321.215Y-137.055
X321.215Y-152.295
X321.245Y-119.25
X321.245Y-126.87
X323.755Y-137.055
X323.755Y-152.295
X323.785Y-119.25
X323.785Y-126.87
X326.295Y-137.055
X326.295Y-152.295
X326.325Y-119.25
X326.325Y-126.87
X328.835Y-137.055
X328.835Y-152.295
X328.865Y-119.25
X328.865Y-126.87
X331.375Y-137.055
X331.375Y-152.295
X331.405Y-119.25
X331.405Y-126.87
X333.915Y-137.055
X333.915Y-152.295
X333.945Y-119.25
X333.945Y-126.87
T5
X289.82Y-196.88
X289.82Y-201.96
X291.09Y-194.34
X291.09Y-199.42
X292.36Y-196.88
X292.36Y-201.96
X293.63Y-194.34
X293.63Y-199.42
X294.9Y-196.88
X294.9Y-201.96
X296.17Y-194.34
X296.17Y-199.42
X297.44Y-196.88
X297.44Y-201.96
X298.71Y-194.34
X298.71Y-199.42
X299.98Y-196.88
X299.98Y-201.96
X301.25Y-194.34
X301.25Y-199.42
X302.52Y-196.88
X302.52Y-201.96
X303.79Y-194.34
X303.79Y-199.42
X305.06Y-196.88
X305.06Y-201.96
X306.33Y-194.34
X306.33Y-199.42
X307.6Y-196.88
X307.6Y-201.96
X308.87Y-194.34
X308.87Y-199.42
X310.14Y-196.88
X310.14Y-201.96
X311.41Y-194.34
X311.41Y-199.42
X312.68Y-196.88
X312.68Y-201.96
X313.95Y-194.34
X313.95Y-199.42
X315.22Y-196.88
X315.22Y-201.96
X316.49Y-194.34
X316.49Y-199.42
X317.76Y-196.88
X317.76Y-201.96
X319.03Y-194.34
X319.03Y-199.42
X320.3Y-196.88
X320.3Y-201.96
X321.57Y-194.34
X321.57Y-199.42
X322.84Y-196.88
X322.84Y-201.96
X324.11Y-194.34
X324.11Y-199.42
X325.38Y-196.88
X325.38Y-201.96
X326.65Y-194.34
X326.65Y-199.42
X327.92Y-196.88
X327.92Y-201.96
X329.19Y-194.34
X329.19Y-199.42
X330.46Y-196.88
X330.46Y-201.96
X331.73Y-194.34
X331.73Y-199.42
T6
X40.437Y-173.05
X42.342Y-200.355
X42.342Y-210.515
X43.84Y-75.89
X43.84Y-80.97
X45.517Y-173.05
X46.2Y-103.762
X46.22Y-116.552
X46.29Y-88.612
X46.34Y-75.89
X46.34Y-80.97
X48.86Y-129.23
X48.87Y-75.89
X48.87Y-80.97
X51.28Y-103.762
X51.3Y-116.552
X51.37Y-88.612
X51.41Y-75.89
X51.41Y-80.97
X53.94Y-75.89
X53.94Y-80.97
X53.94Y-129.23
X53.95Y-183.788
X56.44Y-75.89
X56.44Y-80.97
X58.96Y-75.89
X58.96Y-80.97
X59.0Y-176.207
X59.03Y-183.788
X61.53Y-75.89
X61.53Y-80.97
X62.822Y-180.01
X62.822Y-182.53
X64.08Y-176.207
X64.13Y-75.89
X64.13Y-80.97
X66.63Y-75.89
X66.63Y-80.97
X67.903Y-180.01
X67.903Y-182.53
X69.15Y-77.358
X69.15Y-82.438
X71.7Y-77.94
X71.7Y-83.02
X71.755Y-187.604
X71.755Y-195.224
X74.117Y-200.33
X74.219Y-187.604
X74.219Y-195.224
X74.257Y-68.38
X74.26Y-88.532
X74.29Y-77.94
X74.29Y-83.02
X76.82Y-77.94
X76.82Y-83.02
X77.45Y-135.597
X79.197Y-200.33
X79.337Y-68.38
X79.34Y-88.532
X79.39Y-77.94
X79.39Y-83.02
X81.86Y-77.94
X81.86Y-83.02
X81.88Y-180.012
X82.53Y-135.597
X84.397Y-55.69
X84.407Y-58.28
X84.41Y-78.537
X84.41Y-83.617
X84.427Y-60.81
X84.447Y-63.38
X85.68Y-163.183
X85.69Y-165.76
X85.69Y-168.242
X86.91Y-78.547
X86.91Y-83.627
X86.94Y-152.14
X86.95Y-154.653
X86.96Y-180.012
X89.45Y-78.55
X89.45Y-83.63
X89.477Y-55.69
X89.487Y-58.28
X89.507Y-60.81
X89.527Y-63.38
X90.76Y-163.183
X90.77Y-165.76
X90.77Y-168.242
X90.867Y-195.2
X90.867Y-200.28
X92.0Y-78.547
X92.0Y-83.627
X92.02Y-152.14
X92.03Y-154.653
X92.138Y-178.09
X92.138Y-183.17
X94.6Y-78.54
X94.6Y-83.62
X97.12Y-88.697
X102.2Y-88.697
X104.767Y-83.63
X104.77Y-81.13
X106.032Y-70.94
X106.037Y-73.48
X106.037Y-78.58
X106.052Y-76.03
X109.847Y-83.63
X109.85Y-81.13
X111.112Y-63.31
X111.112Y-68.39
X111.112Y-70.94
X111.117Y-73.48
X111.117Y-78.58
X111.132Y-76.03
X111.795Y-48.116
X113.712Y-63.32
X113.712Y-68.4
X113.72Y-40.523
X113.72Y-45.602
X116.27Y-40.53
X116.27Y-45.61
X116.282Y-63.31
X116.282Y-68.39
X118.93Y-40.527
X118.93Y-45.607
X120.066Y-88.728
X121.407Y-40.52
X121.407Y-45.6
X122.606Y-86.182
X123.907Y-40.53
X123.907Y-45.61
X124.425Y-48.116
X125.146Y-88.728
X126.367Y-48.14
X126.4Y-40.52
X126.4Y-45.6
X127.64Y-65.802
X127.66Y-88.748
X127.67Y-63.33
X127.686Y-86.182
X128.91Y-40.52
X128.91Y-45.6
X128.97Y-116.14
X128.97Y-121.6
X128.97Y-126.17
X128.97Y-131.63
X130.2Y-86.157
X130.262Y-177.5
X131.41Y-40.52
X131.41Y-45.6
X131.447Y-48.14
X131.51Y-116.14
X131.51Y-121.6
X131.51Y-126.17
X131.51Y-131.63
X132.72Y-65.802
X132.74Y-88.748
X132.75Y-63.33
X134.04Y-227.002
X134.04Y-231.462
X134.05Y-116.14
X134.05Y-121.6
X134.05Y-126.17
X134.05Y-131.63
X135.28Y-86.157
X135.343Y-177.5
X136.59Y-116.14
X136.59Y-121.6
X136.59Y-126.17
X136.59Y-131.63
X136.66Y-140.118
X136.715Y-40.513
X137.79Y-223.137
X139.12Y-227.002
X139.12Y-231.462
X139.13Y-116.14
X139.13Y-121.6
X139.13Y-126.17
X139.13Y-131.63
X139.2Y-43.047
X139.2Y-48.127
X140.39Y-69.657
X140.39Y-74.737
X141.67Y-116.14
X141.67Y-121.6
X141.67Y-126.17
X141.67Y-131.63
X141.69Y-43.05
X141.69Y-48.13
X141.74Y-140.118
X142.87Y-223.137
X144.21Y-116.14
X144.21Y-121.6
X144.21Y-126.17
X144.21Y-131.63
X145.403Y-53.13
X145.403Y-58.21
X146.75Y-116.14
X146.75Y-121.6
X146.75Y-126.17
X146.75Y-131.63
X149.29Y-116.14
X149.29Y-121.6
X149.29Y-126.17
X149.29Y-131.63
X149.345Y-40.513
X150.48Y-204.137
X151.83Y-116.14
X151.83Y-121.6
X151.83Y-126.17
X151.83Y-131.63
X154.37Y-116.14
X154.37Y-121.6
X154.37Y-126.17
X154.37Y-131.63
X155.56Y-204.137
X155.58Y-225.83
X156.91Y-116.14
X156.91Y-121.6
X156.91Y-126.17
X156.91Y-131.63
X158.123Y-218.14
X159.45Y-116.14
X159.45Y-121.6
X159.45Y-126.17
X159.45Y-131.63
X160.66Y-225.83
X161.99Y-116.14
X161.99Y-121.6
X161.99Y-126.17
X161.99Y-131.63
X163.202Y-218.14
X163.26Y-233.4
X163.26Y-235.98
X163.26Y-238.54
X164.53Y-116.14
X164.53Y-121.6
X164.53Y-126.17
X164.53Y-131.63
X167.07Y-116.14
X167.07Y-121.6
X167.07Y-126.17
X167.07Y-131.63
X168.34Y-233.4
X168.34Y-235.98
X168.34Y-238.54
X169.61Y-116.14
X169.61Y-121.6
X169.61Y-126.17
X169.61Y-131.63
X172.15Y-116.14
X172.15Y-121.6
X172.15Y-126.17
X172.15Y-131.63
X173.442Y-233.4
X173.442Y-235.98
X173.442Y-238.54
X174.69Y-116.14
X174.69Y-121.6
X174.69Y-126.17
X174.69Y-131.63
X177.23Y-116.14
X177.23Y-121.6
X177.23Y-126.17
X177.23Y-131.63
X178.522Y-233.4
X178.522Y-235.98
X178.522Y-238.54
X179.77Y-116.14
X179.77Y-121.6
X179.77Y-126.17
X179.77Y-131.63
X181.117Y-233.48
X182.31Y-116.14
X182.31Y-121.6
X182.31Y-126.17
X182.31Y-131.63
X183.507Y-78.63
X183.507Y-83.71
X183.667Y-238.54
X183.67Y-241.12
X184.85Y-116.14
X184.85Y-121.6
X184.85Y-126.17
X184.85Y-131.63
X186.197Y-233.48
X187.39Y-116.14
X187.39Y-121.6
X187.39Y-126.17
X187.39Y-131.63
X188.747Y-238.54
X188.75Y-241.12
X189.93Y-116.14
X189.93Y-121.6
X189.93Y-126.17
X189.93Y-131.63
X191.207Y-70.99
X191.207Y-76.07
X192.47Y-116.14
X192.47Y-121.6
X192.47Y-126.17
X192.47Y-131.63
X193.802Y-218.288
X193.808Y-220.78
X195.01Y-116.14
X195.01Y-121.6
X195.01Y-126.17
X195.01Y-131.63
X196.35Y-238.62
X196.35Y-241.12
X197.55Y-116.14
X197.55Y-121.6
X197.55Y-126.17
X197.55Y-131.63
X197.653Y-234.77
X198.882Y-218.288
X198.887Y-220.78
X198.927Y-50.62
X198.927Y-55.7
X200.09Y-116.14
X200.09Y-121.6
X200.09Y-126.17
X200.09Y-131.63
X201.43Y-238.62
X201.43Y-241.12
X202.63Y-116.14
X202.63Y-121.6
X202.63Y-126.17
X202.63Y-131.63
X202.732Y-234.77
X204.03Y-232.19
X204.03Y-237.25
X204.072Y-229.65
X205.17Y-116.14
X205.17Y-121.6
X205.17Y-126.17
X205.17Y-131.63
X207.71Y-116.14
X207.71Y-121.6
X207.71Y-126.17
X207.71Y-131.63
X209.11Y-232.19
X209.11Y-237.25
X209.153Y-229.65
X210.25Y-116.14
X210.25Y-121.6
X210.25Y-126.17
X210.25Y-131.63
X212.79Y-116.14
X212.79Y-121.6
X212.79Y-126.17
X212.79Y-131.63
X213.47Y-162.31
X214.19Y-237.332
X214.224Y-230.96
X214.224Y-233.51
X214.23Y-223.4
X214.23Y-225.94
X214.23Y-228.44
X215.33Y-116.14
X215.33Y-121.6
X215.33Y-126.17
X215.33Y-131.63
X217.87Y-116.14
X217.87Y-121.6
X217.87Y-126.17
X217.87Y-131.63
X218.55Y-162.31
X219.27Y-237.332
X219.304Y-230.96
X219.304Y-233.51
X219.31Y-223.4
X219.31Y-225.94
X219.31Y-228.44
X220.41Y-116.14
X220.41Y-121.6
X220.41Y-126.17
X220.41Y-131.63
X222.95Y-116.14
X222.95Y-121.6
X222.95Y-126.17
X222.95Y-131.63
X225.49Y-116.14
X225.49Y-121.6
X225.49Y-126.17
X225.49Y-131.63
X226.89Y-201.752
X228.03Y-116.14
X228.03Y-121.6
X228.03Y-126.17
X228.03Y-131.63
X230.57Y-116.14
X230.57Y-121.6
X230.57Y-126.17
X230.57Y-131.63
X231.97Y-201.752
X233.11Y-116.14
X233.11Y-121.6
X233.11Y-126.17
X233.11Y-131.63
X234.467Y-77.927
X234.467Y-83.007
X234.467Y-85.56
X234.467Y-90.64
X235.65Y-116.14
X235.65Y-121.6
X235.65Y-126.17
X235.65Y-131.63
X237.1Y-45.62
X237.1Y-50.7
X237.82Y-208.108
X237.82Y-210.642
X238.19Y-116.14
X238.19Y-121.6
X238.19Y-126.17
X238.19Y-131.63
X240.73Y-116.14
X240.73Y-121.6
X240.73Y-126.17
X240.73Y-131.63
X242.9Y-208.108
X242.9Y-210.642
X243.27Y-116.14
X243.27Y-121.6
X243.27Y-126.17
X243.27Y-131.63
X245.351Y-206.883
X245.351Y-210.668
X245.81Y-116.14
X245.81Y-121.6
X245.81Y-126.17
X245.81Y-131.63
X248.35Y-116.14
X248.35Y-121.6
X248.35Y-126.17
X248.35Y-131.63
X249.767Y-192.89
X249.767Y-197.97
X250.431Y-206.883
X250.431Y-210.668
X250.89Y-116.14
X250.89Y-121.6
X250.89Y-126.17
X250.89Y-131.63
X252.304Y-215.722
X252.304Y-220.802
X253.43Y-116.14
X253.43Y-121.6
X253.43Y-126.17
X253.43Y-131.63
X254.889Y-215.735
X254.889Y-220.815
X257.452Y-197.942
X257.452Y-203.022
X257.48Y-215.735
X257.48Y-220.815
X257.55Y-164.912
X259.99Y-197.942
X259.99Y-203.022
X262.572Y-197.95
X262.572Y-203.03
X262.63Y-164.912
X263.238Y-136.05
X265.1Y-44.29
X265.176Y-197.942
X265.176Y-203.022
X268.317Y-136.05
X270.18Y-44.29
X270.23Y-197.99
X270.23Y-203.07
X272.743Y-197.99
X272.743Y-203.07
X280.507Y-143.72
X280.507Y-148.8
X288.037Y-48.12
X288.037Y-53.2
X313.538Y-156.083
X318.618Y-156.083
X326.24Y-89.35
X326.24Y-94.43
T7
X64.13Y-186.95
X64.13Y-212.35
X69.18Y-190.11
X69.21Y-210.44
X70.48Y-181.95
X72.98Y-181.95
X75.59Y-72.15
X78.09Y-72.15
X81.9Y-244.76
X81.92Y-218.04
X81.92Y-200.3
X89.51Y-244.74
X133.98Y-46.9
X136.48Y-46.9
X137.79Y-65.88
X140.29Y-65.88
X143.067Y-63.373
X144.23Y-46.88
X145.567Y-63.373
X146.73Y-46.88
X147.99Y-224.41
X150.49Y-224.41
X153.08Y-220.66
X155.58Y-220.66
X158.21Y-221.855
X160.71Y-221.855
X165.78Y-229.65
X168.28Y-229.65
X168.34Y-219.39
X170.84Y-219.39
X173.42Y-229.65
X175.92Y-229.65
X175.96Y-219.39
X178.46Y-219.39
X179.14Y-242.34
X181.64Y-242.34
X186.35Y-251.22
X186.35Y-253.76
X191.27Y-234.74
X191.32Y-241.11
X193.77Y-234.74
X193.82Y-241.11
X201.51Y-218.23
X204.01Y-218.23
X206.58Y-241.07
X209.08Y-241.07
X214.25Y-241.18
X216.49Y-251.22
X216.49Y-253.76
X216.75Y-241.18
X233.914Y-207.443
X233.914Y-209.943
T8
X57.65Y-187.645
X57.65Y-190.185
X57.65Y-192.725
X70.409Y-222.333
X70.409Y-224.033
X70.409Y-225.733
X70.409Y-227.433
X70.409Y-229.133
T10
X42.47Y-192.035
X42.5Y-181.995
X50.09Y-192.035
X50.12Y-181.995
X53.75Y-249.65
X61.0Y-249.65
X68.26Y-249.64
X123.0Y-246.172
X242.445Y-246.172
T11
X121.615Y-243.332
X124.385Y-243.332
X125.77Y-246.172
X127.155Y-243.332
X128.54Y-246.172
X129.925Y-243.332
X131.31Y-246.172
X132.695Y-243.332
X134.08Y-246.172
X135.465Y-243.332
X136.85Y-246.172
X138.235Y-243.332
X139.62Y-246.172
X141.005Y-243.332
X241.06Y-243.332
X243.83Y-243.332
X245.215Y-246.172
X246.6Y-243.332
X247.985Y-246.172
X249.37Y-243.332
X250.755Y-246.172
X252.14Y-243.332
X253.525Y-246.172
X254.91Y-243.332
X256.295Y-246.172
X257.68Y-243.332
X259.065Y-246.172
X260.45Y-243.332
T12
X74.13Y-46.54
X74.13Y-51.62
X76.66Y-36.54
X76.67Y-49.08
X79.2Y-39.08
X81.75Y-46.54
X81.75Y-51.62
X82.2Y-189.74
X82.21Y-193.94
X84.28Y-39.08
X86.82Y-36.54
X86.83Y-49.08
X89.37Y-46.54
X89.37Y-51.62
T13
X114.925Y-84.8
X120.005Y-84.8
T14
X183.93Y-248.74
X183.93Y-256.21
X218.98Y-248.77
X218.98Y-256.24
T15
X46.27Y-215.62
X61.51Y-215.62
X71.7Y-233.95
X86.94Y-233.95
T16
X41.148Y-238.785
X41.199Y-43.967
X341.854Y-44.018
T7
X46.395Y-43.23G85X46.395Y-45.93
G05
X52.775Y-47.43G85X49.775Y-47.43
G05
X52.645Y-41.44G85X49.945Y-41.44
G05
X162.42Y-254.27G85X162.42Y-254.87
G05
X169.22Y-254.57G85X169.82Y-254.57
G05
X170.7Y-258.23G85X170.7Y-258.83
G05
T9
X51.42Y-249.1G85X51.42Y-250.2
G05
X70.82Y-249.09G85X70.82Y-250.19
G05
T0
M30
