G04 #@! TF.GenerationSoftware,KiCad,Pcbnew,7.0.7*
G04 #@! TF.CreationDate,2023-08-28T12:17:28+01:00*
G04 #@! TF.ProjectId,NeoGeoAES3_5,4e656f47-656f-4414-9553-335f352e6b69,BF1.1*
G04 #@! TF.SameCoordinates,Original*
G04 #@! TF.FileFunction,Soldermask,Top*
G04 #@! TF.FilePolarity,Negative*
%FSLAX46Y46*%
G04 Gerber Fmt 4.6, Leading zero omitted, Abs format (unit mm)*
G04 Created by KiCad (PCBNEW 7.0.7) date 2023-08-28 12:17:28*
%MOMM*%
%LPD*%
G01*
G04 APERTURE LIST*
G04 Aperture macros list*
%AMFreePoly0*
4,1,40,0.655063,0.650106,0.670902,0.650106,0.683715,0.640796,0.698779,0.635902,0.708088,0.623088,0.720902,0.613779,0.725796,0.598715,0.735106,0.585902,0.735106,0.570062,0.740000,0.555000,0.740000,-0.555000,0.735106,-0.570062,0.735106,-0.585902,0.725796,-0.598715,0.720902,-0.613779,0.708088,-0.623088,0.698779,-0.635902,0.683715,-0.640796,0.670902,-0.650106,0.655063,-0.650106,
0.640000,-0.655000,0.000000,-0.655000,-0.014700,-0.650224,-0.078952,-0.650224,-0.232266,-0.612436,-0.372082,-0.539054,-0.490275,-0.434345,-0.579974,-0.304394,-0.635967,-0.156752,-0.655000,0.000000,-0.635967,0.156752,-0.579974,0.304394,-0.490275,0.434345,-0.372082,0.539054,-0.232266,0.612436,-0.078952,0.650224,-0.014700,0.650224,0.000000,0.655000,0.640000,0.655000,0.655063,0.650106,
0.655063,0.650106,$1*%
%AMFreePoly1*
4,1,28,-0.001450,1.452833,0.015923,1.446024,0.016143,1.445519,0.016652,1.445308,1.271607,0.187012,1.278894,0.169352,1.286204,0.151830,1.286164,0.151733,1.286204,0.151637,1.282613,0.143000,1.285750,0.143000,1.285750,-0.143000,-1.285750,-0.143000,-1.285750,0.143000,-1.285136,0.143000,-1.285807,0.144537,-1.285644,0.144952,-1.285817,0.145367,-1.278679,0.162720,-1.271842,0.180166,
-0.054775,1.444673,-0.054269,1.444893,-0.054058,1.445402,-0.036817,1.452516,-0.019706,1.459990,-0.019193,1.459788,-0.018684,1.459999,-0.001450,1.452833,-0.001450,1.452833,$1*%
%AMFreePoly2*
4,1,44,0.001229,1.577951,0.002590,1.578098,0.027389,1.570802,0.043485,1.564109,0.059712,1.557749,0.061948,1.556016,0.062096,1.556372,0.062605,1.556161,0.101618,1.530048,1.356573,0.271752,1.382535,0.232784,1.389733,0.215340,1.396953,0.198033,1.400204,0.168491,1.405750,0.143000,1.405750,-0.143000,1.386700,-0.207877,1.335600,-0.252156,1.285750,-0.263000,-1.285750,-0.263000,
-1.350627,-0.243950,-1.394906,-0.192850,-1.405750,-0.143000,-1.405750,0.143000,-1.402900,0.152702,-1.404282,0.163605,-1.403831,0.165252,-1.403958,0.166406,-1.396795,0.191017,-1.390039,0.207441,-1.383569,0.223951,-1.358301,0.263381,-0.141234,1.527888,-0.128085,1.537025,-0.122469,1.543991,-0.099829,1.556330,-0.083724,1.562975,-0.067739,1.569957,-0.065006,1.570303,-0.065146,1.570641,
-0.064637,1.570852,-0.038405,1.573679,-0.000661,1.578469,0.001229,1.577951,0.001229,1.577951,$1*%
%AMFreePoly3*
4,1,26,1.215375,-0.272783,1.219129,-0.293174,1.215134,-0.301521,1.215147,-0.310775,1.202071,-0.328822,1.192453,-0.348924,0.052453,-1.547298,0.035690,-1.556372,0.021661,-1.569283,0.009164,-1.570733,-0.001897,-1.576722,-0.020792,-1.574210,-0.039730,-1.576409,-0.050692,-1.570237,-0.063161,-1.568580,-0.076973,-1.555440,-0.093585,-1.546088,-1.193585,-0.350713,-1.202483,-0.331297,-1.215065,-0.314028,
-1.215078,-0.303813,-1.219334,-0.294528,-1.215375,-0.274859,-1.215375,0.282999,1.215375,0.282999,1.215375,-0.272783,1.215375,-0.272783,$1*%
%AMFreePoly4*
4,1,28,1.390750,-0.283000,1.386757,-0.283000,1.389168,-0.295879,1.385106,-0.304433,1.385106,-0.313902,1.372128,-0.331763,1.362658,-0.351709,0.022657,-1.768709,0.004737,-1.778479,-0.010624,-1.791922,-0.021775,-1.792934,-0.031605,-1.798294,-0.051846,-1.795665,-0.072174,-1.797511,-0.081789,-1.791776,-0.092894,-1.790334,-0.107726,-1.776307,-0.125254,-1.765854,-1.365254,-0.348854,-1.373217,-0.330265,
-1.385106,-0.313902,-1.385106,-0.302513,-1.389591,-0.292044,-1.387534,-0.283000,-1.390750,-0.283000,-1.390750,0.283000,1.390750,0.283000,1.390750,-0.283000,1.390750,-0.283000,$1*%
%AMFreePoly5*
4,1,32,-0.021729,1.813069,-0.011263,1.812192,0.004697,1.798420,0.023136,1.788199,1.363136,0.351199,1.372324,0.331494,1.385106,0.313902,1.385106,0.305889,1.388752,0.298754,1.388459,0.296892,1.389255,0.295186,1.386886,0.283000,1.390750,0.283000,1.390750,-0.283000,-1.390750,-0.283000,-1.390750,0.283000,-1.387691,0.283000,-1.389651,0.291352,-1.388925,0.293078,-1.389288,0.294917,
-1.385106,0.303949,-1.385106,0.313902,-1.373414,0.329994,-1.365710,0.348330,-0.125710,1.785330,-0.107681,1.796252,-0.092261,1.810632,-0.081833,1.811912,-0.072850,1.817355,-0.051843,1.815593,-0.030918,1.818163,-0.021729,1.813069,-0.021729,1.813069,$1*%
G04 Aperture macros list end*
%ADD10C,0.150000*%
%ADD11R,1.400000X1.400000*%
%ADD12C,1.400000*%
%ADD13O,1.400000X1.400000*%
%ADD14C,3.000000*%
%ADD15C,1.600000*%
%ADD16O,1.600000X1.600000*%
%ADD17C,1.500000*%
%ADD18FreePoly0,180.000000*%
%ADD19FreePoly0,0.000000*%
%ADD20C,6.000000*%
%ADD21C,1.800000*%
%ADD22C,1.350000*%
%ADD23C,2.000000*%
%ADD24R,1.875396X2.889996*%
%ADD25FreePoly0,90.000000*%
%ADD26FreePoly0,270.000000*%
%ADD27O,5.900000X5.600000*%
%ADD28C,3.600000*%
%ADD29C,1.348000*%
%ADD30FreePoly1,270.000000*%
%ADD31R,0.286000X2.571500*%
%ADD32FreePoly1,90.000000*%
%ADD33FreePoly1,0.000000*%
%ADD34R,2.571500X0.286000*%
%ADD35FreePoly1,180.000000*%
%ADD36C,3.200000*%
%ADD37C,2.300000*%
%ADD38O,1.800000X1.800000*%
%ADD39O,6.000000X6.000000*%
%ADD40R,0.286000X2.280000*%
%ADD41FreePoly2,0.000000*%
%ADD42R,2.280000X0.286000*%
%ADD43C,3.500000*%
%ADD44C,1.524000*%
%ADD45R,4.820000X1.840000*%
%ADD46R,4.000000X1.800000*%
%ADD47R,1.800000X4.000000*%
%ADD48FreePoly3,270.000000*%
%ADD49R,0.565998X2.430750*%
%ADD50FreePoly3,90.000000*%
%ADD51C,1.905000*%
%ADD52O,2.000000X1.905000*%
%ADD53C,2.500000*%
%ADD54FreePoly4,0.000000*%
%ADD55R,2.781500X0.566000*%
%ADD56FreePoly5,0.000000*%
%ADD57FreePoly4,90.000000*%
%ADD58R,0.566000X2.781500*%
%ADD59FreePoly4,270.000000*%
%ADD60O,2.000000X2.400000*%
%ADD61O,2.400000X2.000000*%
%ADD62R,1.700000X1.200000*%
%ADD63O,1.700000X1.200000*%
%ADD64R,1.300000X1.300000*%
%ADD65O,1.300000X1.300000*%
%ADD66C,1.320000*%
%ADD67FreePoly5,270.000000*%
%ADD68FreePoly4,180.000000*%
%ADD69R,1.800000X1.275000*%
%ADD70O,1.800000X1.275000*%
%ADD71C,2.800000*%
G04 APERTURE END LIST*
D10*
X75320000Y-220620000D02*
X93200000Y-220620000D01*
X93200000Y-230730000D01*
X75320000Y-230730000D01*
X75320000Y-220620000D01*
G36*
X75320000Y-220620000D02*
G01*
X93200000Y-220620000D01*
X93200000Y-230730000D01*
X75320000Y-230730000D01*
X75320000Y-220620000D01*
G37*
X122780000Y-67870000D02*
X132570000Y-67870000D01*
X132570000Y-79570000D01*
X122780000Y-79570000D01*
X122780000Y-67870000D01*
G36*
X122780000Y-67870000D02*
G01*
X132570000Y-67870000D01*
X132570000Y-79570000D01*
X122780000Y-79570000D01*
X122780000Y-67870000D01*
G37*
X262813800Y-212115400D02*
X272592800Y-212115400D01*
X272592800Y-223824800D01*
X262813800Y-223824800D01*
X262813800Y-212115400D01*
G36*
X262813800Y-212115400D02*
G01*
X272592800Y-212115400D01*
X272592800Y-223824800D01*
X262813800Y-223824800D01*
X262813800Y-212115400D01*
G37*
D11*
X237110000Y-92510000D03*
D12*
X239650000Y-92510000D03*
X242190000Y-92510000D03*
X244730000Y-92510000D03*
X247270000Y-92510000D03*
X249810000Y-92510000D03*
X252350000Y-92510000D03*
X254890000Y-92510000D03*
X257430000Y-92510000D03*
X259970000Y-92510000D03*
X262510000Y-92510000D03*
X265050000Y-92510000D03*
X267590000Y-92510000D03*
X270130000Y-92510000D03*
X270130000Y-84890000D03*
X267590000Y-84890000D03*
X265050000Y-84890000D03*
X262510000Y-84890000D03*
X259970000Y-84890000D03*
X257430000Y-84890000D03*
X254890000Y-84890000D03*
X252350000Y-84890000D03*
X249810000Y-84890000D03*
X247270000Y-84890000D03*
X244730000Y-84890000D03*
X242190000Y-84890000D03*
X239650000Y-84890000D03*
X237110000Y-84890000D03*
D11*
X237140000Y-82280000D03*
D12*
X239680000Y-82280000D03*
X242220000Y-82280000D03*
X244760000Y-82280000D03*
X247300000Y-82280000D03*
X249840000Y-82280000D03*
X252380000Y-82280000D03*
X254920000Y-82280000D03*
X257460000Y-82280000D03*
X260000000Y-82280000D03*
X262540000Y-82280000D03*
X265080000Y-82280000D03*
X267620000Y-82280000D03*
X270160000Y-82280000D03*
X270160000Y-74660000D03*
X267620000Y-74660000D03*
X265080000Y-74660000D03*
X262540000Y-74660000D03*
X260000000Y-74660000D03*
X257460000Y-74660000D03*
X254920000Y-74660000D03*
X252380000Y-74660000D03*
X249840000Y-74660000D03*
X247300000Y-74660000D03*
X244760000Y-74660000D03*
X242220000Y-74660000D03*
X239680000Y-74660000D03*
X237140000Y-74660000D03*
X139200000Y-48127500D03*
D13*
X139200000Y-43047500D03*
D12*
X131447500Y-48140000D03*
D13*
X126367500Y-48140000D03*
D12*
X198887500Y-220780000D03*
D13*
X193807500Y-220780000D03*
D12*
X64130000Y-80970000D03*
D13*
X64130000Y-75890000D03*
D12*
X92137500Y-178090000D03*
D13*
X92137500Y-183170000D03*
D11*
X237190000Y-231850000D03*
D12*
X239730000Y-231850000D03*
X242270000Y-231850000D03*
X244810000Y-231850000D03*
X247350000Y-231850000D03*
X249890000Y-231850000D03*
X252430000Y-231850000D03*
X254970000Y-231850000D03*
X257510000Y-231850000D03*
X260050000Y-231850000D03*
X158122500Y-218140000D03*
D13*
X163202500Y-218140000D03*
D12*
X197652500Y-234770000D03*
D13*
X202732500Y-234770000D03*
D12*
X267742500Y-238515000D03*
X267742500Y-236015000D03*
X268317500Y-136050000D03*
D13*
X263237500Y-136050000D03*
D12*
X141690000Y-43050000D03*
D13*
X141690000Y-48130000D03*
D14*
X46280000Y-215505000D03*
X61520000Y-215505000D03*
D15*
X52650000Y-200310000D03*
D16*
X52650000Y-210470000D03*
D12*
X163260000Y-235980000D03*
D13*
X168340000Y-235980000D03*
D17*
X50130000Y-197850000D03*
X52670000Y-197850000D03*
X55210000Y-197850000D03*
D18*
X72710000Y-177500000D03*
D19*
X70740000Y-177505000D03*
D20*
X43815000Y-251053600D03*
D12*
X163260000Y-238540000D03*
D13*
X168340000Y-238540000D03*
D11*
X74305000Y-98750000D03*
D12*
X76845000Y-98750000D03*
X79385000Y-98750000D03*
X81925000Y-98750000D03*
X84465000Y-98750000D03*
X87005000Y-98750000D03*
X89545000Y-98750000D03*
X92085000Y-98750000D03*
X94625000Y-98750000D03*
X97165000Y-98750000D03*
X97165000Y-91130000D03*
X94625000Y-91130000D03*
X92085000Y-91130000D03*
X89545000Y-91130000D03*
X87005000Y-91130000D03*
X84465000Y-91130000D03*
X81925000Y-91130000D03*
X79385000Y-91130000D03*
X76845000Y-91130000D03*
X74305000Y-91130000D03*
X59029600Y-183788300D03*
D13*
X53949600Y-183788300D03*
D17*
X54490000Y-179980000D03*
X59570000Y-179980000D03*
X57030000Y-179980000D03*
D21*
X153080000Y-220660000D03*
X155580000Y-220660000D03*
D12*
X79350000Y-60770000D03*
X76850000Y-60770000D03*
D11*
X285655000Y-152295000D03*
D12*
X288195000Y-152295000D03*
X290735000Y-152295000D03*
X293275000Y-152295000D03*
X295815000Y-152295000D03*
X298355000Y-152295000D03*
X300895000Y-152295000D03*
X303435000Y-152295000D03*
X305975000Y-152295000D03*
X308515000Y-152295000D03*
X311055000Y-152295000D03*
X313595000Y-152295000D03*
X316135000Y-152295000D03*
X318675000Y-152295000D03*
X321215000Y-152295000D03*
X323755000Y-152295000D03*
X326295000Y-152295000D03*
X328835000Y-152295000D03*
X331375000Y-152295000D03*
D22*
X333915000Y-152295000D03*
D12*
X333915000Y-137055000D03*
X331375000Y-137055000D03*
X328835000Y-137055000D03*
X326295000Y-137055000D03*
X323755000Y-137055000D03*
X321215000Y-137055000D03*
X318675000Y-137055000D03*
X316135000Y-137055000D03*
X313595000Y-137055000D03*
X311055000Y-137055000D03*
X308515000Y-137055000D03*
X305975000Y-137055000D03*
X303435000Y-137055000D03*
X300895000Y-137055000D03*
X298355000Y-137055000D03*
X295815000Y-137055000D03*
X293275000Y-137055000D03*
X290735000Y-137055000D03*
X288195000Y-137055000D03*
X285655000Y-137055000D03*
X76820000Y-83020000D03*
D13*
X76820000Y-77940000D03*
D12*
X209110000Y-232190000D03*
D13*
X204030000Y-232190000D03*
D12*
X61530000Y-80970000D03*
D13*
X61530000Y-75890000D03*
D12*
X188750000Y-241120000D03*
D13*
X183670000Y-241120000D03*
D12*
X66630000Y-80970000D03*
D13*
X66630000Y-75890000D03*
D21*
X147990000Y-224410000D03*
X150490000Y-224410000D03*
D12*
X214230000Y-223400000D03*
D13*
X219310000Y-223400000D03*
D11*
X283090000Y-187790000D03*
D12*
X285630000Y-187790000D03*
X288170000Y-187790000D03*
X290710000Y-187790000D03*
X293250000Y-187790000D03*
X295790000Y-187790000D03*
X298330000Y-187790000D03*
X298330000Y-180170000D03*
X295790000Y-180170000D03*
X293250000Y-180170000D03*
X290710000Y-180170000D03*
X288170000Y-180170000D03*
X285630000Y-180170000D03*
X283090000Y-180170000D03*
X104707500Y-235925000D03*
X104707500Y-238425000D03*
D20*
X331780000Y-114490000D03*
D12*
X132740400Y-88747600D03*
D13*
X127660400Y-88747600D03*
D12*
X201430000Y-241120000D03*
D13*
X196350000Y-241120000D03*
D11*
X227020000Y-162400000D03*
D12*
X229560000Y-162400000D03*
X232100000Y-162400000D03*
X234640000Y-162400000D03*
X237180000Y-162400000D03*
X239720000Y-162400000D03*
X242260000Y-162400000D03*
X244800000Y-162400000D03*
X247340000Y-162400000D03*
X249880000Y-162400000D03*
X252420000Y-162400000D03*
X254960000Y-162400000D03*
X257500000Y-162400000D03*
X260040000Y-162400000D03*
X262580000Y-162400000D03*
X265120000Y-162400000D03*
X267660000Y-162400000D03*
X270200000Y-162400000D03*
X272740000Y-162400000D03*
D22*
X275280000Y-162400000D03*
D12*
X275280000Y-147160000D03*
X272740000Y-147160000D03*
X270200000Y-147160000D03*
X267660000Y-147160000D03*
X265120000Y-147160000D03*
X262580000Y-147160000D03*
X260040000Y-147160000D03*
X257500000Y-147160000D03*
X254960000Y-147160000D03*
X252420000Y-147160000D03*
X249880000Y-147160000D03*
X247340000Y-147160000D03*
X244800000Y-147160000D03*
X242260000Y-147160000D03*
X239720000Y-147160000D03*
X237180000Y-147160000D03*
X234640000Y-147160000D03*
X232100000Y-147160000D03*
X229560000Y-147160000D03*
X227020000Y-147160000D03*
D17*
X173520000Y-225732500D03*
X176060000Y-225732500D03*
X178600000Y-225732500D03*
D11*
X46150000Y-114010000D03*
D12*
X48690000Y-114010000D03*
X51230000Y-114010000D03*
X53770000Y-114010000D03*
X56310000Y-114010000D03*
X58850000Y-114010000D03*
X61390000Y-114010000D03*
X63930000Y-114010000D03*
X66470000Y-114010000D03*
X69010000Y-114010000D03*
X71550000Y-114010000D03*
X74090000Y-114010000D03*
X76630000Y-114010000D03*
X79170000Y-114010000D03*
X79170000Y-106390000D03*
X76630000Y-106390000D03*
X74090000Y-106390000D03*
X71550000Y-106390000D03*
X69010000Y-106390000D03*
X66470000Y-106390000D03*
X63930000Y-106390000D03*
X61390000Y-106390000D03*
X58850000Y-106390000D03*
X56310000Y-106390000D03*
X53770000Y-106390000D03*
X51230000Y-106390000D03*
X48690000Y-106390000D03*
X46150000Y-106390000D03*
D11*
X204060000Y-58160000D03*
D12*
X206600000Y-58160000D03*
X209140000Y-58160000D03*
X211680000Y-58160000D03*
X214220000Y-58160000D03*
X216760000Y-58160000D03*
X219300000Y-58160000D03*
X221840000Y-58160000D03*
X224380000Y-58160000D03*
X226920000Y-58160000D03*
X226920000Y-50540000D03*
X224380000Y-50540000D03*
X221840000Y-50540000D03*
X219300000Y-50540000D03*
X216760000Y-50540000D03*
X214220000Y-50540000D03*
X211680000Y-50540000D03*
X209140000Y-50540000D03*
X206600000Y-50540000D03*
X204060000Y-50540000D03*
X64090000Y-43010000D03*
X64090000Y-40510000D03*
D23*
X53750000Y-249650000D03*
X61000000Y-249650000D03*
X68260000Y-249640000D03*
D24*
X51420000Y-249650000D03*
X70820000Y-249640000D03*
D25*
X275425000Y-117660000D03*
D26*
X275420000Y-115690000D03*
D12*
X114950000Y-235900000D03*
X114950000Y-238400000D03*
X262572500Y-203030000D03*
D13*
X262572500Y-197950000D03*
D20*
X247310000Y-175030000D03*
D27*
X41198800Y-43967400D03*
D21*
X173420000Y-229650000D03*
X175920000Y-229650000D03*
D12*
X242900200Y-210642200D03*
D13*
X237820200Y-210642200D03*
D28*
X279600000Y-209010000D03*
X279610000Y-198750000D03*
X342130000Y-198760000D03*
X342130000Y-209030000D03*
D29*
X289820000Y-196880000D03*
X291090000Y-194340000D03*
X292360000Y-196880000D03*
X293630000Y-194340000D03*
X294900000Y-196880000D03*
X296170000Y-194340000D03*
X297440000Y-196880000D03*
X298710000Y-194340000D03*
X299980000Y-196880000D03*
X301250000Y-194340000D03*
X302520000Y-196880000D03*
X303790000Y-194340000D03*
X305060000Y-196880000D03*
X306330000Y-194340000D03*
X307600000Y-196880000D03*
X308870000Y-194340000D03*
X310140000Y-196880000D03*
X311410000Y-194340000D03*
X312680000Y-196880000D03*
X313950000Y-194340000D03*
X315220000Y-196880000D03*
X316490000Y-194340000D03*
X317760000Y-196880000D03*
X319030000Y-194340000D03*
X320300000Y-196880000D03*
X321570000Y-194340000D03*
X322840000Y-196880000D03*
X324110000Y-194340000D03*
X325380000Y-196880000D03*
X326650000Y-194340000D03*
X327920000Y-196880000D03*
X329190000Y-194340000D03*
X330460000Y-196880000D03*
X331730000Y-194340000D03*
X289820000Y-201960000D03*
X291090000Y-199420000D03*
X292360000Y-201960000D03*
X293630000Y-199420000D03*
X294900000Y-201960000D03*
X296170000Y-199420000D03*
X297440000Y-201960000D03*
X298710000Y-199420000D03*
X299980000Y-201960000D03*
X301250000Y-199420000D03*
X302520000Y-201960000D03*
X303790000Y-199420000D03*
X305060000Y-201960000D03*
X306330000Y-199420000D03*
X307600000Y-201960000D03*
X308870000Y-199420000D03*
X310140000Y-201960000D03*
X311410000Y-199420000D03*
X312680000Y-201960000D03*
X313950000Y-199420000D03*
X315220000Y-201960000D03*
X316490000Y-199420000D03*
X317760000Y-201960000D03*
X319030000Y-199420000D03*
X320300000Y-201960000D03*
X321570000Y-199420000D03*
X322840000Y-201960000D03*
X324110000Y-199420000D03*
X325380000Y-201960000D03*
X326650000Y-199420000D03*
X327920000Y-201960000D03*
X329190000Y-199420000D03*
X330460000Y-201960000D03*
X331730000Y-199420000D03*
D11*
X232080000Y-220730000D03*
D12*
X234620000Y-220730000D03*
X237160000Y-220730000D03*
X239700000Y-220730000D03*
X242240000Y-220730000D03*
X244780000Y-220730000D03*
X247320000Y-220730000D03*
X247320000Y-213110000D03*
X244780000Y-213110000D03*
X242240000Y-213110000D03*
X239700000Y-213110000D03*
X237160000Y-213110000D03*
X234620000Y-213110000D03*
X232080000Y-213110000D03*
X237100000Y-45620000D03*
D13*
X237100000Y-50700000D03*
D12*
X86950000Y-154652500D03*
D13*
X92030000Y-154652500D03*
D20*
X304680000Y-156750000D03*
D11*
X102200000Y-227000000D03*
D12*
X104740000Y-227000000D03*
X107280000Y-227000000D03*
X109820000Y-227000000D03*
X112360000Y-227000000D03*
X114900000Y-227000000D03*
X117440000Y-227000000D03*
X119980000Y-227000000D03*
X122520000Y-227000000D03*
X125060000Y-227000000D03*
D11*
X183610000Y-230860000D03*
D12*
X186150000Y-230860000D03*
X188690000Y-230860000D03*
X191230000Y-230860000D03*
X193770000Y-230860000D03*
X196310000Y-230860000D03*
X198850000Y-230860000D03*
X198850000Y-223240000D03*
X196310000Y-223240000D03*
X193770000Y-223240000D03*
X191230000Y-223240000D03*
X188690000Y-223240000D03*
X186150000Y-223240000D03*
X183610000Y-223240000D03*
X97130000Y-238410000D03*
X97130000Y-235910000D03*
D15*
X104800000Y-50545000D03*
X104800000Y-55545000D03*
D12*
X160660000Y-225830000D03*
D13*
X155580000Y-225830000D03*
D12*
X112397500Y-235905000D03*
X112397500Y-238405000D03*
D21*
X158210000Y-221855000D03*
X160710000Y-221855000D03*
D12*
X234594400Y-204260000D03*
X237134400Y-204260000D03*
X239674400Y-204260000D03*
X242214400Y-204260000D03*
X244754400Y-204260000D03*
X247294400Y-204260000D03*
X249834400Y-204260000D03*
X252374400Y-204260000D03*
D19*
X123100000Y-177525000D03*
D18*
X125070000Y-177520000D03*
D12*
X131410000Y-40520000D03*
D13*
X131410000Y-45600000D03*
D12*
X254900000Y-236060000D03*
X254900000Y-238560000D03*
D11*
X196440000Y-86210000D03*
D12*
X198980000Y-86210000D03*
X201520000Y-86210000D03*
X204060000Y-86210000D03*
X206600000Y-86210000D03*
X209140000Y-86210000D03*
X211680000Y-86210000D03*
X214220000Y-86210000D03*
X216760000Y-86210000D03*
X219300000Y-86210000D03*
X221840000Y-86210000D03*
X224380000Y-86210000D03*
X226920000Y-86210000D03*
X229460000Y-86210000D03*
X229460000Y-70970000D03*
X226920000Y-70970000D03*
X224380000Y-70970000D03*
X221840000Y-70970000D03*
X219300000Y-70970000D03*
X216760000Y-70970000D03*
X214220000Y-70970000D03*
X211680000Y-70970000D03*
X209140000Y-70970000D03*
X206600000Y-70970000D03*
X204060000Y-70970000D03*
X201520000Y-70970000D03*
X198980000Y-70970000D03*
X196440000Y-70970000D03*
D15*
X50120000Y-210440000D03*
D16*
X50120000Y-200280000D03*
D12*
X140390000Y-74737500D03*
D13*
X140390000Y-69657500D03*
D12*
X46200000Y-103762500D03*
D13*
X51280000Y-103762500D03*
D21*
X179140000Y-242340000D03*
X181640000Y-242340000D03*
D11*
X112430000Y-60710000D03*
D12*
X114970000Y-60710000D03*
X117510000Y-60710000D03*
X120050000Y-60710000D03*
X122590000Y-60710000D03*
X125130000Y-60710000D03*
X127670000Y-60710000D03*
X130210000Y-60710000D03*
X132750000Y-60710000D03*
X135290000Y-60710000D03*
X137830000Y-60710000D03*
X140370000Y-60710000D03*
X140370000Y-50550000D03*
X137830000Y-50550000D03*
X135290000Y-50550000D03*
X132750000Y-50550000D03*
X130210000Y-50550000D03*
X127670000Y-50550000D03*
X125130000Y-50550000D03*
X122590000Y-50550000D03*
X120050000Y-50550000D03*
X117510000Y-50550000D03*
X114970000Y-50550000D03*
X112430000Y-50550000D03*
D30*
X319210000Y-80690000D03*
D31*
X318710000Y-80690000D03*
X318210000Y-80690000D03*
X317710000Y-80690000D03*
X317210000Y-80690000D03*
X316710000Y-80690000D03*
X316210000Y-80690000D03*
X315710000Y-80690000D03*
X315210000Y-80690000D03*
X314710000Y-80690000D03*
X314210000Y-80690000D03*
X313710000Y-80690000D03*
X313210000Y-80690000D03*
X312710000Y-80690000D03*
X312210000Y-80690000D03*
X311710000Y-80690000D03*
X311210000Y-80690000D03*
X310710000Y-80690000D03*
X310210000Y-80690000D03*
X309710000Y-80690000D03*
X309210000Y-80690000D03*
X308710000Y-80690000D03*
X308210000Y-80690000D03*
X307710000Y-80690000D03*
X307210000Y-80690000D03*
X306710000Y-80690000D03*
X306210000Y-80690000D03*
X305710000Y-80690000D03*
X305210000Y-80690000D03*
X304710000Y-80690000D03*
X304210000Y-80690000D03*
X303710000Y-80690000D03*
X303210000Y-80690000D03*
X302710000Y-80690000D03*
X302210000Y-80690000D03*
X301710000Y-80690000D03*
X301210000Y-80690000D03*
X300710000Y-80690000D03*
X300210000Y-80690000D03*
X299710000Y-80690000D03*
X299210000Y-80690000D03*
X298710000Y-80690000D03*
X298210000Y-80690000D03*
D32*
X297710000Y-80690000D03*
D33*
X295410000Y-83000000D03*
D34*
X295410000Y-83500000D03*
X295410000Y-84000000D03*
X295410000Y-84500000D03*
X295410000Y-85000000D03*
X295410000Y-85500000D03*
X295410000Y-86000000D03*
X295410000Y-86500000D03*
X295410000Y-87000000D03*
X295410000Y-87500000D03*
X295410000Y-88000000D03*
X295410000Y-88500000D03*
X295410000Y-89000000D03*
X295410000Y-89500000D03*
X295410000Y-90000000D03*
X295410000Y-90500000D03*
X295410000Y-91000000D03*
X295410000Y-91500000D03*
X295410000Y-92000000D03*
X295410000Y-92500000D03*
X295410000Y-93000000D03*
X295410000Y-93500000D03*
X295410000Y-94000000D03*
X295410000Y-94500000D03*
X295410000Y-95000000D03*
X295410000Y-95500000D03*
X295410000Y-96000000D03*
X295410000Y-96500000D03*
X295410000Y-97000000D03*
X295410000Y-97500000D03*
X295410000Y-98000000D03*
X295410000Y-98500000D03*
X295410000Y-99000000D03*
X295410000Y-99500000D03*
X295410000Y-100000000D03*
X295410000Y-100500000D03*
X295410000Y-101000000D03*
X295410000Y-101500000D03*
X295410000Y-102000000D03*
X295410000Y-102500000D03*
X295410000Y-103000000D03*
X295410000Y-103500000D03*
X295410000Y-104000000D03*
D35*
X295410000Y-104500000D03*
D32*
X297710000Y-106870000D03*
D31*
X298210000Y-106870000D03*
X298710000Y-106870000D03*
X299210000Y-106870000D03*
X299710000Y-106870000D03*
X300210000Y-106870000D03*
X300710000Y-106870000D03*
X301210000Y-106870000D03*
X301710000Y-106870000D03*
X302210000Y-106870000D03*
X302710000Y-106870000D03*
X303210000Y-106870000D03*
X303710000Y-106870000D03*
X304210000Y-106870000D03*
X304710000Y-106870000D03*
X305210000Y-106870000D03*
X305710000Y-106870000D03*
X306210000Y-106870000D03*
X306710000Y-106870000D03*
X307210000Y-106870000D03*
X307710000Y-106870000D03*
X308210000Y-106870000D03*
X308710000Y-106870000D03*
X309210000Y-106870000D03*
X309710000Y-106870000D03*
X310210000Y-106870000D03*
X310710000Y-106870000D03*
X311210000Y-106870000D03*
X311710000Y-106870000D03*
X312210000Y-106870000D03*
X312710000Y-106870000D03*
X313210000Y-106870000D03*
X313710000Y-106870000D03*
X314210000Y-106870000D03*
X314710000Y-106870000D03*
X315210000Y-106870000D03*
X315710000Y-106870000D03*
X316210000Y-106870000D03*
X316710000Y-106870000D03*
X317210000Y-106870000D03*
X317710000Y-106870000D03*
X318210000Y-106870000D03*
X318710000Y-106870000D03*
D30*
X319210000Y-106870000D03*
D35*
X321640000Y-104510000D03*
D34*
X321640000Y-104010000D03*
X321640000Y-103510000D03*
X321640000Y-103010000D03*
X321640000Y-102510000D03*
X321640000Y-102010000D03*
X321640000Y-101510000D03*
X321640000Y-101010000D03*
X321640000Y-100510000D03*
X321640000Y-100010000D03*
X321640000Y-99510000D03*
X321640000Y-99010000D03*
X321640000Y-98510000D03*
X321640000Y-98010000D03*
X321640000Y-97510000D03*
X321640000Y-97010000D03*
X321640000Y-96510000D03*
X321640000Y-96010000D03*
X321640000Y-95510000D03*
X321640000Y-95010000D03*
X321640000Y-94510000D03*
X321640000Y-94010000D03*
X321640000Y-93510000D03*
X321640000Y-93010000D03*
X321640000Y-92510000D03*
X321640000Y-92010000D03*
X321640000Y-91510000D03*
X321640000Y-91010000D03*
X321640000Y-90510000D03*
X321640000Y-90010000D03*
X321640000Y-89510000D03*
X321640000Y-89010000D03*
X321640000Y-88510000D03*
X321640000Y-88010000D03*
X321640000Y-87510000D03*
X321640000Y-87010000D03*
X321640000Y-86510000D03*
X321640000Y-86010000D03*
X321640000Y-85510000D03*
X321640000Y-85010000D03*
X321640000Y-84510000D03*
X321640000Y-84010000D03*
X321640000Y-83510000D03*
D33*
X321640000Y-83010000D03*
D12*
X167750000Y-242341400D03*
X167750000Y-244841400D03*
X191207500Y-70990000D03*
D13*
X191207500Y-76070000D03*
D36*
X234130000Y-244712000D03*
X267430000Y-244712000D03*
D37*
X260450000Y-243332000D03*
X257680000Y-243332000D03*
X254910000Y-243332000D03*
X252140000Y-243332000D03*
X249370000Y-243332000D03*
X246600000Y-243332000D03*
X243830000Y-243332000D03*
X241060000Y-243332000D03*
X259065000Y-246172000D03*
X256295000Y-246172000D03*
X253525000Y-246172000D03*
X250755000Y-246172000D03*
X247985000Y-246172000D03*
X245215000Y-246172000D03*
X242445000Y-246172000D03*
D12*
X239667500Y-236015000D03*
X239667500Y-238515000D03*
X69150000Y-82437500D03*
D13*
X69150000Y-77357500D03*
D12*
X99647500Y-235925000D03*
X99647500Y-238425000D03*
D21*
X71755000Y-195224400D03*
D38*
X71755000Y-187604400D03*
D12*
X92000000Y-83627500D03*
D13*
X92000000Y-78547500D03*
D23*
X69180000Y-190110000D03*
X69210000Y-210440000D03*
D39*
X341853800Y-44018200D03*
D12*
X64080000Y-176207500D03*
D13*
X59000000Y-176207500D03*
D12*
X89527500Y-63380000D03*
D13*
X84447500Y-63380000D03*
D21*
X165780000Y-229650000D03*
X168280000Y-229650000D03*
D12*
X245351300Y-210667600D03*
D13*
X250431300Y-210667600D03*
D12*
X155560000Y-204137500D03*
D13*
X150480000Y-204137500D03*
D21*
X206580000Y-241070000D03*
X209080000Y-241070000D03*
D30*
X208360000Y-139170000D03*
D40*
X207710000Y-139180000D03*
X207060000Y-139180000D03*
X206410000Y-139180000D03*
X205760000Y-139180000D03*
X205110000Y-139180000D03*
X204460000Y-139180000D03*
X203810000Y-139180000D03*
X203160000Y-139180000D03*
X202510000Y-139180000D03*
X201860000Y-139180000D03*
X201210000Y-139180000D03*
X200560000Y-139180000D03*
X199910000Y-139180000D03*
X199260000Y-139180000D03*
X198610000Y-139180000D03*
X197960000Y-139180000D03*
X197310000Y-139180000D03*
X196660000Y-139180000D03*
X196010000Y-139180000D03*
X195360000Y-139180000D03*
X194710000Y-139180000D03*
X194060000Y-139180000D03*
X193410000Y-139180000D03*
X192760000Y-139180000D03*
X192110000Y-139180000D03*
X191460000Y-139180000D03*
X190810000Y-139180000D03*
X190160000Y-139180000D03*
D32*
X189510000Y-139220000D03*
D41*
X186930000Y-141770000D03*
D42*
X186950000Y-142420000D03*
X186950000Y-143070000D03*
X186950000Y-143720000D03*
X186950000Y-144370000D03*
X186950000Y-145020000D03*
X186950000Y-145670000D03*
X186950000Y-146320000D03*
X186950000Y-146970000D03*
X186950000Y-147620000D03*
X186950000Y-148270000D03*
X186950000Y-148920000D03*
X186950000Y-149570000D03*
X186950000Y-150220000D03*
X186950000Y-150870000D03*
X186950000Y-151520000D03*
X186950000Y-152170000D03*
X186950000Y-152820000D03*
X186950000Y-153470000D03*
D35*
X186990000Y-154120000D03*
D32*
X189510000Y-156870000D03*
D40*
X190160000Y-156830000D03*
X190810000Y-156830000D03*
X191460000Y-156830000D03*
X192110000Y-156830000D03*
X192760000Y-156830000D03*
X193410000Y-156830000D03*
X194060000Y-156830000D03*
X194710000Y-156830000D03*
X195360000Y-156830000D03*
X196010000Y-156830000D03*
X196660000Y-156830000D03*
X197310000Y-156830000D03*
X197960000Y-156830000D03*
X198610000Y-156830000D03*
X199260000Y-156830000D03*
X199910000Y-156830000D03*
X200560000Y-156830000D03*
X201210000Y-156830000D03*
X201860000Y-156830000D03*
X202510000Y-156830000D03*
X203160000Y-156830000D03*
X203810000Y-156830000D03*
X204460000Y-156830000D03*
X205110000Y-156830000D03*
X205760000Y-156830000D03*
X206410000Y-156830000D03*
X207060000Y-156830000D03*
X207710000Y-156830000D03*
D30*
X208360000Y-156820000D03*
D35*
X210880000Y-154120000D03*
D42*
X210840000Y-153470000D03*
X210840000Y-152820000D03*
X210840000Y-152170000D03*
X210840000Y-151520000D03*
X210840000Y-150870000D03*
X210840000Y-150220000D03*
X210840000Y-149570000D03*
X210840000Y-148920000D03*
X210840000Y-148270000D03*
X210840000Y-147620000D03*
X210840000Y-146970000D03*
X210840000Y-146320000D03*
X210840000Y-145670000D03*
X210840000Y-145020000D03*
X210840000Y-144370000D03*
X210840000Y-143720000D03*
X210840000Y-143070000D03*
X210840000Y-142420000D03*
D33*
X210820000Y-141770000D03*
D12*
X130110000Y-235960000D03*
X130110000Y-238460000D03*
D15*
X59600000Y-200240000D03*
D16*
X59600000Y-210400000D03*
D12*
X273880000Y-61960000D03*
D13*
X268800000Y-61960000D03*
D12*
X214190000Y-237332500D03*
D13*
X219270000Y-237332500D03*
D12*
X257452500Y-203022200D03*
D13*
X257452500Y-197942200D03*
D20*
X221150000Y-139460000D03*
D12*
X270230000Y-203070000D03*
D13*
X270230000Y-197990000D03*
D12*
X245351300Y-206883000D03*
D13*
X250431300Y-206883000D03*
D21*
X175960000Y-219390000D03*
X178460000Y-219390000D03*
D12*
X86910000Y-83627500D03*
D13*
X86910000Y-78547500D03*
D12*
X262497500Y-236045000D03*
X262497500Y-238545000D03*
X249767500Y-192890000D03*
D13*
X249767500Y-197970000D03*
D21*
X137790000Y-65880000D03*
X140290000Y-65880000D03*
D11*
X102225000Y-98750000D03*
D12*
X104765000Y-98750000D03*
X107305000Y-98750000D03*
X109845000Y-98750000D03*
X112385000Y-98750000D03*
X114925000Y-98750000D03*
X117465000Y-98750000D03*
X117465000Y-91130000D03*
X114925000Y-91130000D03*
X112385000Y-91130000D03*
X109845000Y-91130000D03*
X107305000Y-91130000D03*
X104765000Y-91130000D03*
X102225000Y-91130000D03*
X79337500Y-68380000D03*
D13*
X74257500Y-68380000D03*
D21*
X81920000Y-218040000D03*
X81920366Y-200300000D03*
D12*
X183667400Y-238540000D03*
D13*
X188747400Y-238540000D03*
D12*
X53940000Y-80970000D03*
D13*
X53940000Y-75890000D03*
D15*
X170950000Y-243590000D03*
X175950000Y-243590000D03*
D12*
X201430000Y-238620000D03*
D13*
X196350000Y-238620000D03*
D12*
X94600000Y-83620000D03*
D13*
X94600000Y-78540000D03*
D12*
X106032500Y-70940000D03*
D13*
X111112500Y-70940000D03*
D12*
X104770000Y-81130000D03*
D13*
X109850000Y-81130000D03*
D12*
X173442500Y-238540000D03*
D13*
X178522500Y-238540000D03*
D21*
X74218800Y-195224400D03*
D38*
X74218800Y-187604400D03*
D12*
X257550000Y-164912500D03*
D13*
X262630000Y-164912500D03*
D12*
X134040000Y-227002500D03*
D13*
X139120000Y-227002500D03*
D12*
X121407500Y-40520000D03*
D13*
X121407500Y-45600000D03*
D20*
X153050000Y-55690000D03*
D43*
X120340000Y-118940000D03*
X262270000Y-118940000D03*
D44*
X128970000Y-116140000D03*
X131510000Y-116140000D03*
X134050000Y-116140000D03*
X136590000Y-116140000D03*
X139130000Y-116140000D03*
X141670000Y-116140000D03*
X144210000Y-116140000D03*
X146750000Y-116140000D03*
X149290000Y-116140000D03*
X151830000Y-116140000D03*
X154370000Y-116140000D03*
X156910000Y-116140000D03*
X159450000Y-116140000D03*
X161990000Y-116140000D03*
X164530000Y-116140000D03*
X167070000Y-116140000D03*
X169610000Y-116140000D03*
X172150000Y-116140000D03*
X174690000Y-116140000D03*
X177230000Y-116140000D03*
X179770000Y-116140000D03*
X182310000Y-116140000D03*
X184850000Y-116140000D03*
X187390000Y-116140000D03*
X189930000Y-116140000D03*
X192470000Y-116140000D03*
X195010000Y-116140000D03*
X197550000Y-116140000D03*
X200090000Y-116140000D03*
X202630000Y-116140000D03*
X205170000Y-116140000D03*
X207710000Y-116140000D03*
X210250000Y-116140000D03*
X212790000Y-116140000D03*
X215330000Y-116140000D03*
X217870000Y-116140000D03*
X220410000Y-116140000D03*
X222950000Y-116140000D03*
X225490000Y-116140000D03*
X228030000Y-116140000D03*
X230570000Y-116140000D03*
X233110000Y-116140000D03*
X235650000Y-116140000D03*
X238190000Y-116140000D03*
X240730000Y-116140000D03*
X243270000Y-116140000D03*
X245810000Y-116140000D03*
X248350000Y-116140000D03*
X250890000Y-116140000D03*
X253430000Y-116140000D03*
X128970000Y-121600000D03*
X131510000Y-121600000D03*
X134050000Y-121600000D03*
X136590000Y-121600000D03*
X139130000Y-121600000D03*
X141670000Y-121600000D03*
X144210000Y-121600000D03*
X146750000Y-121600000D03*
X149290000Y-121600000D03*
X151830000Y-121600000D03*
X154370000Y-121600000D03*
X156910000Y-121600000D03*
X159450000Y-121600000D03*
X161990000Y-121600000D03*
X164530000Y-121600000D03*
X167070000Y-121600000D03*
X169610000Y-121600000D03*
X172150000Y-121600000D03*
X174690000Y-121600000D03*
X177230000Y-121600000D03*
X179770000Y-121600000D03*
X182310000Y-121600000D03*
X184850000Y-121600000D03*
X187390000Y-121600000D03*
X189930000Y-121600000D03*
X192470000Y-121600000D03*
X195010000Y-121600000D03*
X197550000Y-121600000D03*
X200090000Y-121600000D03*
X202630000Y-121600000D03*
X205170000Y-121600000D03*
X207710000Y-121600000D03*
X210250000Y-121600000D03*
X212790000Y-121600000D03*
X215330000Y-121600000D03*
X217870000Y-121600000D03*
X220410000Y-121600000D03*
X222950000Y-121600000D03*
X225490000Y-121600000D03*
X228030000Y-121600000D03*
X230570000Y-121600000D03*
X233110000Y-121600000D03*
X235650000Y-121600000D03*
X238190000Y-121600000D03*
X240730000Y-121600000D03*
X243270000Y-121600000D03*
X245810000Y-121600000D03*
X248350000Y-121600000D03*
X250890000Y-121600000D03*
X253430000Y-121600000D03*
D12*
X174740000Y-251190000D03*
X177240000Y-251190000D03*
D37*
X120005000Y-84800000D03*
X114925000Y-84800000D03*
D21*
X75590000Y-72150000D03*
X78090000Y-72150000D03*
D12*
X86940000Y-152140000D03*
D13*
X92020000Y-152140000D03*
D12*
X249887500Y-236045000D03*
X249887500Y-238545000D03*
X124425000Y-48116060D03*
X111795000Y-48116060D03*
X74260000Y-88532500D03*
D13*
X79340000Y-88532500D03*
D25*
X277790000Y-117660000D03*
D26*
X277785000Y-115690000D03*
D20*
X84328000Y-139450000D03*
D12*
X136715000Y-40512883D03*
X149345000Y-40512883D03*
D11*
X160760000Y-55700000D03*
D12*
X163300000Y-55700000D03*
X165840000Y-55700000D03*
X168380000Y-55700000D03*
X170920000Y-55700000D03*
X173460000Y-55700000D03*
X176000000Y-55700000D03*
X176000000Y-48080000D03*
X173460000Y-48080000D03*
X170920000Y-48080000D03*
X168380000Y-48080000D03*
X165840000Y-48080000D03*
X163300000Y-48080000D03*
X160760000Y-48080000D03*
X134630000Y-73430000D03*
X120640000Y-73430000D03*
X130250000Y-83630000D03*
X125090000Y-83550000D03*
X71700000Y-83020000D03*
D13*
X71700000Y-77940000D03*
D21*
X191320000Y-241110000D03*
X193820000Y-241110000D03*
D12*
X214230000Y-228440000D03*
D13*
X219310000Y-228440000D03*
D45*
X51275000Y-47430000D03*
D46*
X51295000Y-41440000D03*
D47*
X46395000Y-44580000D03*
D15*
X81900000Y-244760000D03*
X89510000Y-244740000D03*
X96570000Y-50595000D03*
X96570000Y-55595000D03*
D20*
X331460000Y-186000000D03*
D21*
X70480000Y-181950000D03*
X72980000Y-181950000D03*
D48*
X293220000Y-57700000D03*
D49*
X294490000Y-57700000D03*
X295760000Y-57700000D03*
X297030000Y-57700000D03*
X298300000Y-57700000D03*
X299570000Y-57700000D03*
X300840000Y-57700000D03*
X302110000Y-57700000D03*
X303380000Y-57700000D03*
X304650000Y-57700000D03*
X305920000Y-57700000D03*
X307190000Y-57700000D03*
X308460000Y-57700000D03*
D50*
X309730000Y-57700000D03*
X309730000Y-46150000D03*
D49*
X308460000Y-46150000D03*
X307190000Y-46150000D03*
X305920000Y-46150000D03*
X304650000Y-46150000D03*
X303380000Y-46150000D03*
X302110000Y-46150000D03*
X300840000Y-46150000D03*
X299570000Y-46150000D03*
X298300000Y-46150000D03*
X297030000Y-46150000D03*
X295760000Y-46150000D03*
X294490000Y-46150000D03*
D48*
X293220000Y-46150000D03*
D23*
X50090000Y-192035000D03*
X42470000Y-192035000D03*
X50120000Y-181995000D03*
X42500000Y-181995000D03*
D12*
X242207500Y-236025000D03*
X242207500Y-238525000D03*
D14*
X86910000Y-233935000D03*
X71670000Y-233935000D03*
D51*
X57650000Y-192725000D03*
D52*
X57650000Y-190185000D03*
X57650000Y-187645000D03*
D12*
X90867500Y-195200000D03*
D13*
X90867500Y-200280000D03*
D17*
X42540000Y-196530000D03*
X45080000Y-196530000D03*
X47620000Y-196530000D03*
D12*
X56440000Y-80970000D03*
D13*
X56440000Y-75890000D03*
D12*
X113720000Y-40522500D03*
D13*
X113720000Y-45602500D03*
D12*
X193802000Y-218287600D03*
D13*
X198882000Y-218287600D03*
D17*
X216490000Y-251220000D03*
X186350000Y-251220000D03*
D53*
X218980000Y-248770000D03*
X218980000Y-256240000D03*
X183930000Y-248740000D03*
X183930000Y-256210000D03*
D17*
X186350000Y-253760000D03*
X216490000Y-253760000D03*
D36*
X114685200Y-244712000D03*
X147985200Y-244712000D03*
D37*
X141005200Y-243332000D03*
X138235200Y-243332000D03*
X135465200Y-243332000D03*
X132695200Y-243332000D03*
X129925200Y-243332000D03*
X127155200Y-243332000D03*
X124385200Y-243332000D03*
X121615200Y-243332000D03*
X139620200Y-246172000D03*
X136850200Y-246172000D03*
X134080200Y-246172000D03*
X131310200Y-246172000D03*
X128540200Y-246172000D03*
X125770200Y-246172000D03*
X123000200Y-246172000D03*
D12*
X48870000Y-80970000D03*
D13*
X48870000Y-75890000D03*
D12*
X163260000Y-233400000D03*
D13*
X168340000Y-233400000D03*
D21*
X143067400Y-63373000D03*
X145567400Y-63373000D03*
D12*
X270180000Y-44290000D03*
D13*
X265100000Y-44290000D03*
D12*
X123907500Y-40530000D03*
D13*
X123907500Y-45610000D03*
D12*
X79355000Y-58377500D03*
X76855000Y-58377500D03*
D15*
X104740000Y-60815000D03*
X104740000Y-65815000D03*
D12*
X126400000Y-45600000D03*
D13*
X126400000Y-40520000D03*
D20*
X178260000Y-164810000D03*
D12*
X116270000Y-45610000D03*
D13*
X116270000Y-40530000D03*
D12*
X89477500Y-55690000D03*
D13*
X84397500Y-55690000D03*
D12*
X234600000Y-235980000D03*
X234600000Y-238480000D03*
X234467400Y-85560000D03*
D13*
X234467400Y-90640000D03*
D12*
X106052500Y-76030000D03*
D13*
X111132500Y-76030000D03*
D11*
X237190000Y-226820000D03*
D12*
X239730000Y-226820000D03*
X242270000Y-226820000D03*
X244810000Y-226820000D03*
X247350000Y-226820000D03*
X249890000Y-226820000D03*
X252430000Y-226820000D03*
X254970000Y-226820000D03*
X257510000Y-226820000D03*
X260050000Y-226820000D03*
X85690000Y-168242500D03*
D13*
X90770000Y-168242500D03*
D48*
X244805000Y-57810000D03*
D49*
X246075000Y-57810000D03*
X247345000Y-57810000D03*
X248615000Y-57810000D03*
X249885000Y-57810000D03*
X251155000Y-57810000D03*
X252425000Y-57810000D03*
X253695000Y-57810000D03*
X254965000Y-57810000D03*
X256235000Y-57810000D03*
X257505000Y-57810000D03*
X258775000Y-57810000D03*
X260045000Y-57810000D03*
D50*
X261315000Y-57810000D03*
X261315000Y-46260000D03*
D49*
X260045000Y-46260000D03*
X258775000Y-46260000D03*
X257505000Y-46260000D03*
X256235000Y-46260000D03*
X254965000Y-46260000D03*
X253695000Y-46260000D03*
X252425000Y-46260000D03*
X251155000Y-46260000D03*
X249885000Y-46260000D03*
X248615000Y-46260000D03*
X247345000Y-46260000D03*
X246075000Y-46260000D03*
D48*
X244805000Y-46260000D03*
D12*
X244720000Y-236020000D03*
X244720000Y-238520000D03*
X272742500Y-203070000D03*
D13*
X272742500Y-197990000D03*
D12*
X183507500Y-78630000D03*
D13*
X183507500Y-83710000D03*
D11*
X102200000Y-223120000D03*
D12*
X104740000Y-223120000D03*
X107280000Y-223120000D03*
X109820000Y-223120000D03*
X112360000Y-223120000D03*
X114900000Y-223120000D03*
X117440000Y-223120000D03*
X119980000Y-223120000D03*
X122520000Y-223120000D03*
X125060000Y-223120000D03*
X252440000Y-236050000D03*
X252440000Y-238550000D03*
X134040000Y-231462500D03*
D13*
X139120000Y-231462500D03*
D12*
X111112500Y-68390000D03*
D13*
X111112500Y-63310000D03*
D12*
X118687500Y-63340000D03*
D13*
X118687500Y-68420000D03*
D17*
X137810000Y-86180000D03*
D12*
X127637500Y-235955000D03*
X127637500Y-238455000D03*
X257307500Y-236055000D03*
X257307500Y-238555000D03*
X145402500Y-58210000D03*
D13*
X145402500Y-53130000D03*
D12*
X102167500Y-235925000D03*
X102167500Y-238425000D03*
X232082500Y-238475000D03*
X232082500Y-235975000D03*
X230790000Y-223730000D03*
X233330000Y-223730000D03*
X235870000Y-223730000D03*
X238410000Y-223730000D03*
X240950000Y-223730000D03*
X243490000Y-223730000D03*
X246030000Y-223730000D03*
X248570000Y-223730000D03*
D54*
X327690000Y-181600000D03*
D55*
X327690000Y-180600000D03*
X327690000Y-179600000D03*
X327690000Y-178600000D03*
X327690000Y-177600000D03*
X327690000Y-176600000D03*
X327690000Y-175600000D03*
X327690000Y-174600000D03*
X327690000Y-173600000D03*
X327690000Y-172600000D03*
X327690000Y-171600000D03*
X327690000Y-170600000D03*
X327690000Y-169600000D03*
X327690000Y-168600000D03*
X327690000Y-167600000D03*
X327690000Y-166600000D03*
X327690000Y-165600000D03*
X327690000Y-164600000D03*
D56*
X327690000Y-163600000D03*
D57*
X324730000Y-160600000D03*
D58*
X323730000Y-160600000D03*
X322730000Y-160600000D03*
X321730000Y-160600000D03*
X320730000Y-160600000D03*
X319730000Y-160600000D03*
X318730000Y-160600000D03*
X317730000Y-160600000D03*
X316730000Y-160600000D03*
X315730000Y-160600000D03*
X314730000Y-160600000D03*
X313730000Y-160600000D03*
D59*
X312730000Y-160600000D03*
D56*
X309690000Y-163610000D03*
D55*
X309690000Y-164610000D03*
X309690000Y-165610000D03*
X309690000Y-166610000D03*
X309690000Y-167610000D03*
X309690000Y-168610000D03*
X309690000Y-169610000D03*
X309690000Y-170610000D03*
X309690000Y-171610000D03*
X309690000Y-172610000D03*
X309690000Y-173610000D03*
X309690000Y-174610000D03*
X309690000Y-175610000D03*
X309690000Y-176610000D03*
X309690000Y-177610000D03*
X309690000Y-178610000D03*
X309690000Y-179610000D03*
X309690000Y-180610000D03*
D54*
X309690000Y-181610000D03*
D59*
X312750000Y-184640000D03*
D58*
X313750000Y-184640000D03*
X314750000Y-184640000D03*
X315750000Y-184640000D03*
X316750000Y-184640000D03*
X317750000Y-184640000D03*
X318750000Y-184640000D03*
X319750000Y-184640000D03*
X320750000Y-184640000D03*
X321750000Y-184640000D03*
X322750000Y-184640000D03*
X323750000Y-184640000D03*
D57*
X324750000Y-184640000D03*
D12*
X280400000Y-86117500D03*
D13*
X275320000Y-86117500D03*
D12*
X219303600Y-230960000D03*
D13*
X214223600Y-230960000D03*
D12*
X111117500Y-73480000D03*
D13*
X106037500Y-73480000D03*
D60*
X162420000Y-254570000D03*
D61*
X169520000Y-254570000D03*
D60*
X170700000Y-258530000D03*
D12*
X237820200Y-208108300D03*
D13*
X242900200Y-208108300D03*
D12*
X118930000Y-45607500D03*
D13*
X118930000Y-40527500D03*
D20*
X187380000Y-92490000D03*
D11*
X147980000Y-213070000D03*
D12*
X145440000Y-213070000D03*
X142900000Y-213070000D03*
X140360000Y-213070000D03*
X137820000Y-213070000D03*
X135280000Y-213070000D03*
X132740000Y-213070000D03*
X130200000Y-213070000D03*
X130200000Y-220690000D03*
X132740000Y-220690000D03*
X135280000Y-220690000D03*
X137820000Y-220690000D03*
X140360000Y-220690000D03*
X142900000Y-220690000D03*
X145440000Y-220690000D03*
X147980000Y-220690000D03*
X326240000Y-89350000D03*
D13*
X326240000Y-94430000D03*
D12*
X122605800Y-86182200D03*
D13*
X127685800Y-86182200D03*
D12*
X132702500Y-238435000D03*
X132702500Y-235935000D03*
X62822500Y-182530000D03*
D13*
X67902500Y-182530000D03*
D21*
X191270000Y-234740000D03*
X193770000Y-234740000D03*
D12*
X89487500Y-58280000D03*
D13*
X84407500Y-58280000D03*
D12*
X85680000Y-163182500D03*
D13*
X90760000Y-163182500D03*
D21*
X42341800Y-210515200D03*
D38*
X42341800Y-200355200D03*
D12*
X127640000Y-65802500D03*
D13*
X132720000Y-65802500D03*
D12*
X76835000Y-65932500D03*
X79335000Y-65932500D03*
D48*
X94655000Y-205945000D03*
D49*
X95925000Y-205945000D03*
X97195000Y-205945000D03*
X98465000Y-205945000D03*
X99735000Y-205945000D03*
X101005000Y-205945000D03*
X102275000Y-205945000D03*
X103545000Y-205945000D03*
X104815000Y-205945000D03*
X106085000Y-205945000D03*
X107355000Y-205945000D03*
X108625000Y-205945000D03*
X109895000Y-205945000D03*
D50*
X111165000Y-205945000D03*
X111165000Y-194395000D03*
D49*
X109895000Y-194395000D03*
X108625000Y-194395000D03*
X107355000Y-194395000D03*
X106085000Y-194395000D03*
X104815000Y-194395000D03*
X103545000Y-194395000D03*
X102275000Y-194395000D03*
X101005000Y-194395000D03*
X99735000Y-194395000D03*
X98465000Y-194395000D03*
X97195000Y-194395000D03*
X95925000Y-194395000D03*
D48*
X94655000Y-194395000D03*
D12*
X43840000Y-80970000D03*
D13*
X43840000Y-75890000D03*
D12*
X142870000Y-223137500D03*
D13*
X137790000Y-223137500D03*
D12*
X117477500Y-235895000D03*
X117477500Y-238395000D03*
X85690000Y-165760000D03*
D13*
X90770000Y-165760000D03*
D12*
X51410000Y-80970000D03*
D13*
X51410000Y-75890000D03*
D12*
X82530000Y-135597500D03*
D13*
X77450000Y-135597500D03*
D62*
X257000000Y-207518000D03*
D63*
X257000000Y-210058000D03*
D12*
X109800000Y-235920000D03*
X109800000Y-238420000D03*
D64*
X112404000Y-164720000D03*
D65*
X114182000Y-164720000D03*
X115960000Y-164720000D03*
X117738000Y-164720000D03*
X119516000Y-164720000D03*
X121294000Y-164720000D03*
X123072000Y-164720000D03*
X124850000Y-164720000D03*
X126628000Y-164720000D03*
X128406000Y-164720000D03*
X130184000Y-164720000D03*
X131962000Y-164720000D03*
X133740000Y-164720000D03*
X135518000Y-164720000D03*
X137296000Y-164720000D03*
X139074000Y-164720000D03*
X140852000Y-164720000D03*
X142630000Y-164720000D03*
X144408000Y-164720000D03*
X146186000Y-164720000D03*
X147964000Y-164720000D03*
X149742000Y-164720000D03*
X151520000Y-164720000D03*
X153298000Y-164720000D03*
X155076000Y-164720000D03*
X156854000Y-164720000D03*
X158632000Y-164720000D03*
X160410000Y-164720000D03*
X162188000Y-164720000D03*
X163966000Y-164720000D03*
X165744000Y-164720000D03*
X167522000Y-164720000D03*
X167522000Y-145720000D03*
X165744000Y-145720000D03*
X163966000Y-145720000D03*
X162188000Y-145720000D03*
X160410000Y-145720000D03*
X158632000Y-145720000D03*
X156854000Y-145720000D03*
X155076000Y-145720000D03*
X153298000Y-145720000D03*
X151520000Y-145720000D03*
X149742000Y-145720000D03*
X147964000Y-145720000D03*
X146186000Y-145720000D03*
X144408000Y-145720000D03*
X142630000Y-145720000D03*
X140852000Y-145720000D03*
X139074000Y-145720000D03*
X137296000Y-145720000D03*
X135518000Y-145720000D03*
X133740000Y-145720000D03*
X131962000Y-145720000D03*
X130184000Y-145720000D03*
X128406000Y-145720000D03*
X126628000Y-145720000D03*
X124850000Y-145720000D03*
X123072000Y-145720000D03*
X121294000Y-145720000D03*
X119516000Y-145720000D03*
X117738000Y-145720000D03*
X115960000Y-145720000D03*
X114182000Y-145720000D03*
X112404000Y-145720000D03*
D21*
X214250000Y-241180000D03*
X216750000Y-241180000D03*
D11*
X257570000Y-175110000D03*
D12*
X260110000Y-175110000D03*
X262650000Y-175110000D03*
X265190000Y-175110000D03*
X267730000Y-175110000D03*
X270270000Y-175110000D03*
X272810000Y-175110000D03*
X275350000Y-175110000D03*
X277890000Y-175110000D03*
X280430000Y-175110000D03*
X282970000Y-175110000D03*
X285510000Y-175110000D03*
X285510000Y-167490000D03*
X282970000Y-167490000D03*
X280430000Y-167490000D03*
X277890000Y-167490000D03*
X275350000Y-167490000D03*
X272810000Y-167490000D03*
X270270000Y-167490000D03*
X267730000Y-167490000D03*
X265190000Y-167490000D03*
X262650000Y-167490000D03*
D66*
X260110000Y-167490000D03*
D12*
X257570000Y-167490000D03*
X79390000Y-83020000D03*
D13*
X79390000Y-77940000D03*
D12*
X318617600Y-156083000D03*
D13*
X313537600Y-156083000D03*
D12*
X53940000Y-129230000D03*
D13*
X48860000Y-129230000D03*
D17*
X165830000Y-225752500D03*
X168370000Y-225752500D03*
X170910000Y-225752500D03*
D21*
X133980000Y-46900000D03*
X136480000Y-46900000D03*
D12*
X132750000Y-63330000D03*
D13*
X127670000Y-63330000D03*
D59*
X225610000Y-196740000D03*
D58*
X226610000Y-196740000D03*
X227610000Y-196740000D03*
X228610000Y-196740000D03*
X229610000Y-196740000D03*
X230610000Y-196740000D03*
X231610000Y-196740000D03*
X232610000Y-196740000D03*
X233610000Y-196740000D03*
X234610000Y-196740000D03*
X235610000Y-196740000D03*
X236610000Y-196740000D03*
X237610000Y-196740000D03*
X238610000Y-196740000D03*
X239610000Y-196740000D03*
X240610000Y-196740000D03*
X241610000Y-196740000D03*
X242610000Y-196740000D03*
D67*
X243610000Y-196740000D03*
D54*
X246610000Y-193780000D03*
D55*
X246610000Y-192780000D03*
X246610000Y-191780000D03*
X246610000Y-190780000D03*
X246610000Y-189780000D03*
X246610000Y-188780000D03*
X246610000Y-187780000D03*
X246610000Y-186780000D03*
X246610000Y-185780000D03*
X246610000Y-184780000D03*
X246610000Y-183780000D03*
X246610000Y-182780000D03*
D68*
X246610000Y-181780000D03*
D67*
X243600000Y-178740000D03*
D58*
X242600000Y-178740000D03*
X241600000Y-178740000D03*
X240600000Y-178740000D03*
X239600000Y-178740000D03*
X238600000Y-178740000D03*
X237600000Y-178740000D03*
X236600000Y-178740000D03*
X235600000Y-178740000D03*
X234600000Y-178740000D03*
X233600000Y-178740000D03*
X232600000Y-178740000D03*
X231600000Y-178740000D03*
X230600000Y-178740000D03*
X229600000Y-178740000D03*
X228600000Y-178740000D03*
X227600000Y-178740000D03*
X226600000Y-178740000D03*
D59*
X225600000Y-178740000D03*
D68*
X222570000Y-181800000D03*
D55*
X222570000Y-182800000D03*
X222570000Y-183800000D03*
X222570000Y-184800000D03*
X222570000Y-185800000D03*
X222570000Y-186800000D03*
X222570000Y-187800000D03*
X222570000Y-188800000D03*
X222570000Y-189800000D03*
X222570000Y-190800000D03*
X222570000Y-191800000D03*
X222570000Y-192800000D03*
D54*
X222570000Y-193800000D03*
D20*
X47590000Y-177430000D03*
D12*
X173442500Y-233400000D03*
D13*
X178522500Y-233400000D03*
D12*
X247300000Y-236030000D03*
X247300000Y-238530000D03*
X257479800Y-215734900D03*
D13*
X257479800Y-220814900D03*
D59*
X159430000Y-87440000D03*
D58*
X160430000Y-87440000D03*
X161430000Y-87440000D03*
X162430000Y-87440000D03*
X163430000Y-87440000D03*
X164430000Y-87440000D03*
X165430000Y-87440000D03*
X166430000Y-87440000D03*
X167430000Y-87440000D03*
X168430000Y-87440000D03*
X169430000Y-87440000D03*
X170430000Y-87440000D03*
X171430000Y-87440000D03*
X172430000Y-87440000D03*
X173430000Y-87440000D03*
X174430000Y-87440000D03*
X175430000Y-87440000D03*
X176430000Y-87440000D03*
D67*
X177430000Y-87440000D03*
D54*
X180430000Y-84480000D03*
D55*
X180430000Y-83480000D03*
X180430000Y-82480000D03*
X180430000Y-81480000D03*
X180430000Y-80480000D03*
X180430000Y-79480000D03*
X180430000Y-78480000D03*
X180430000Y-77480000D03*
X180430000Y-76480000D03*
X180430000Y-75480000D03*
X180430000Y-74480000D03*
X180430000Y-73480000D03*
D68*
X180430000Y-72480000D03*
D67*
X177420000Y-69440000D03*
D58*
X176420000Y-69440000D03*
X175420000Y-69440000D03*
X174420000Y-69440000D03*
X173420000Y-69440000D03*
X172420000Y-69440000D03*
X171420000Y-69440000D03*
X170420000Y-69440000D03*
X169420000Y-69440000D03*
X168420000Y-69440000D03*
X167420000Y-69440000D03*
X166420000Y-69440000D03*
X165420000Y-69440000D03*
X164420000Y-69440000D03*
X163420000Y-69440000D03*
X162420000Y-69440000D03*
X161420000Y-69440000D03*
X160420000Y-69440000D03*
D59*
X159420000Y-69440000D03*
D68*
X156390000Y-72500000D03*
D55*
X156390000Y-73500000D03*
X156390000Y-74500000D03*
X156390000Y-75500000D03*
X156390000Y-76500000D03*
X156390000Y-77500000D03*
X156390000Y-78500000D03*
X156390000Y-79500000D03*
X156390000Y-80500000D03*
X156390000Y-81500000D03*
X156390000Y-82500000D03*
X156390000Y-83500000D03*
D54*
X156390000Y-84500000D03*
D21*
X144230000Y-46880000D03*
X146730000Y-46880000D03*
D15*
X262550000Y-43050000D03*
D16*
X252390000Y-43050000D03*
D11*
X46230000Y-98750000D03*
D12*
X48770000Y-98750000D03*
X51310000Y-98750000D03*
X53850000Y-98750000D03*
X56390000Y-98750000D03*
X58930000Y-98750000D03*
X61470000Y-98750000D03*
X64010000Y-98750000D03*
X66550000Y-98750000D03*
X69090000Y-98750000D03*
X69090000Y-91130000D03*
X66550000Y-91130000D03*
X64010000Y-91130000D03*
X61470000Y-91130000D03*
X58930000Y-91130000D03*
X56390000Y-91130000D03*
X53850000Y-91130000D03*
X51310000Y-91130000D03*
X48770000Y-91130000D03*
X46230000Y-91130000D03*
X102200000Y-88697500D03*
D13*
X97120000Y-88697500D03*
D69*
X70408800Y-222333400D03*
D70*
X70408800Y-224033400D03*
X70408800Y-225733400D03*
X70408800Y-227433400D03*
X70408800Y-229133400D03*
D12*
X84410000Y-83617500D03*
D13*
X84410000Y-78537500D03*
D12*
X120000000Y-235880000D03*
X120000000Y-238380000D03*
X89507500Y-60810000D03*
D13*
X84427500Y-60810000D03*
D12*
X125080000Y-235950000D03*
X125080000Y-238450000D03*
X226890000Y-201752500D03*
D13*
X231970000Y-201752500D03*
D12*
X214223600Y-233510000D03*
D13*
X219303600Y-233510000D03*
D12*
X141740000Y-140117500D03*
D13*
X136660000Y-140117500D03*
D71*
X74130000Y-46540000D03*
X81750000Y-46540000D03*
X89370000Y-46540000D03*
X76670000Y-49080000D03*
X86830000Y-49080000D03*
X74130000Y-51620000D03*
X89370000Y-51620000D03*
X81750000Y-51620000D03*
X76660000Y-36540000D03*
X79200000Y-39080000D03*
X84280000Y-39080000D03*
X86820000Y-36540000D03*
D53*
X82210000Y-193940000D03*
X82200000Y-189740000D03*
D11*
X46150000Y-126680000D03*
D12*
X48690000Y-126680000D03*
X51230000Y-126680000D03*
X53770000Y-126680000D03*
X56310000Y-126680000D03*
X58850000Y-126680000D03*
X61390000Y-126680000D03*
X63930000Y-126680000D03*
X66470000Y-126680000D03*
X69010000Y-126680000D03*
X71550000Y-126680000D03*
X74090000Y-126680000D03*
X76630000Y-126680000D03*
X79170000Y-126680000D03*
X79170000Y-119060000D03*
X76630000Y-119060000D03*
X74090000Y-119060000D03*
X71550000Y-119060000D03*
X69010000Y-119060000D03*
X66470000Y-119060000D03*
X63930000Y-119060000D03*
X61390000Y-119060000D03*
X58850000Y-119060000D03*
X56310000Y-119060000D03*
X53770000Y-119060000D03*
X51230000Y-119060000D03*
X48690000Y-119060000D03*
X46150000Y-119060000D03*
X79197200Y-200329800D03*
D13*
X74117200Y-200329800D03*
D12*
X164500000Y-242340000D03*
X164500000Y-244840000D03*
X40436800Y-173050200D03*
D13*
X45516800Y-173050200D03*
D12*
X260180000Y-218260000D03*
X274170000Y-218260000D03*
X264560000Y-208060000D03*
X269720000Y-208140000D03*
X280507500Y-143720000D03*
D13*
X280507500Y-148800000D03*
D12*
X79345000Y-63417500D03*
X76845000Y-63417500D03*
X73062500Y-62095000D03*
X73062500Y-59595000D03*
X113712500Y-68400000D03*
D13*
X113712500Y-63320000D03*
D15*
X47570000Y-210440000D03*
D16*
X47570000Y-200280000D03*
D12*
X252304300Y-220802200D03*
D13*
X252304300Y-215722200D03*
D12*
X81880000Y-180012500D03*
D13*
X86960000Y-180012500D03*
D21*
X233914400Y-207443200D03*
X233914400Y-209943200D03*
D12*
X109847500Y-83630000D03*
D13*
X104767500Y-83630000D03*
D12*
X46340000Y-80970000D03*
D13*
X46340000Y-75890000D03*
D39*
X41148000Y-238785400D03*
D15*
X155670000Y-248650000D03*
D16*
X165830000Y-248650000D03*
D20*
X330600000Y-40470000D03*
D23*
X64130000Y-186950000D03*
X64130000Y-212350000D03*
D12*
X120065800Y-88728300D03*
D13*
X125145800Y-88728300D03*
D15*
X156280000Y-242910000D03*
X161280000Y-242910000D03*
D12*
X213470000Y-162310000D03*
D13*
X218550000Y-162310000D03*
D12*
X173442500Y-235980000D03*
D13*
X178522500Y-235980000D03*
D12*
X66637500Y-40515000D03*
X66637500Y-43015000D03*
X116282500Y-68390000D03*
D13*
X116282500Y-63310000D03*
D12*
X81860000Y-83020000D03*
D13*
X81860000Y-77940000D03*
D12*
X46220000Y-116552500D03*
D13*
X51300000Y-116552500D03*
D12*
X79375000Y-55757500D03*
X76875000Y-55757500D03*
X265176000Y-197942200D03*
D13*
X265176000Y-203022200D03*
D12*
X46290000Y-88612500D03*
D13*
X51370000Y-88612500D03*
D12*
X288037500Y-48120000D03*
D13*
X288037500Y-53200000D03*
D11*
X131580000Y-175060000D03*
D12*
X134120000Y-175060000D03*
X136660000Y-175060000D03*
X139200000Y-175060000D03*
X141740000Y-175060000D03*
X74290000Y-83020000D03*
D13*
X74290000Y-77940000D03*
D12*
X107257500Y-235925000D03*
X107257500Y-238425000D03*
X111117500Y-78580000D03*
D13*
X106037500Y-78580000D03*
D12*
X121184100Y-68326800D03*
D13*
X121184100Y-63246800D03*
D48*
X94670000Y-185810000D03*
D49*
X95940000Y-185810000D03*
X97210000Y-185810000D03*
X98480000Y-185810000D03*
X99750000Y-185810000D03*
X101020000Y-185810000D03*
X102290000Y-185810000D03*
X103560000Y-185810000D03*
X104830000Y-185810000D03*
X106100000Y-185810000D03*
X107370000Y-185810000D03*
X108640000Y-185810000D03*
X109910000Y-185810000D03*
D50*
X111180000Y-185810000D03*
X111180000Y-174260000D03*
D49*
X109910000Y-174260000D03*
X108640000Y-174260000D03*
X107370000Y-174260000D03*
X106100000Y-174260000D03*
X104830000Y-174260000D03*
X103560000Y-174260000D03*
X102290000Y-174260000D03*
X101020000Y-174260000D03*
X99750000Y-174260000D03*
X98480000Y-174260000D03*
X97210000Y-174260000D03*
X95940000Y-174260000D03*
D48*
X94670000Y-174260000D03*
D12*
X122517500Y-235875000D03*
X122517500Y-238375000D03*
X280380000Y-88737500D03*
D13*
X275300000Y-88737500D03*
D12*
X62822500Y-180010000D03*
D13*
X67902500Y-180010000D03*
D12*
X265150000Y-236030000D03*
X265150000Y-238530000D03*
X259820000Y-236050000D03*
X259820000Y-238550000D03*
D11*
X316165000Y-126870000D03*
D12*
X318705000Y-126870000D03*
X321245000Y-126870000D03*
X323785000Y-126870000D03*
X326325000Y-126870000D03*
X328865000Y-126870000D03*
X331405000Y-126870000D03*
X333945000Y-126870000D03*
X333945000Y-119250000D03*
X331405000Y-119250000D03*
X328865000Y-119250000D03*
X326325000Y-119250000D03*
X323785000Y-119250000D03*
X321245000Y-119250000D03*
X318705000Y-119250000D03*
X316165000Y-119250000D03*
X259990000Y-203022200D03*
D13*
X259990000Y-197942200D03*
D12*
X204072500Y-229650000D03*
D13*
X209152500Y-229650000D03*
D21*
X201510000Y-218230000D03*
X204010000Y-218230000D03*
D62*
X260760000Y-207518000D03*
D63*
X260760000Y-210058000D03*
D33*
X51000000Y-144420000D03*
D42*
X51010000Y-145070000D03*
X51010000Y-145720000D03*
X51010000Y-146370000D03*
X51010000Y-147020000D03*
X51010000Y-147670000D03*
X51010000Y-148320000D03*
X51010000Y-148970000D03*
X51010000Y-149620000D03*
X51010000Y-150270000D03*
X51010000Y-150920000D03*
X51010000Y-151570000D03*
X51010000Y-152220000D03*
X51010000Y-152870000D03*
X51010000Y-153520000D03*
X51010000Y-154170000D03*
X51010000Y-154820000D03*
X51010000Y-155470000D03*
X51010000Y-156120000D03*
X51010000Y-156770000D03*
X51010000Y-157420000D03*
X51010000Y-158070000D03*
X51010000Y-158720000D03*
X51010000Y-159370000D03*
X51010000Y-160020000D03*
X51010000Y-160670000D03*
X51010000Y-161320000D03*
X51010000Y-161970000D03*
X51010000Y-162620000D03*
X51010000Y-163270000D03*
X51010000Y-163920000D03*
X51010000Y-164570000D03*
X51010000Y-165220000D03*
X51010000Y-165870000D03*
X51010000Y-166520000D03*
X51010000Y-167170000D03*
X51010000Y-167820000D03*
X51010000Y-168470000D03*
X51010000Y-169120000D03*
D35*
X50960000Y-169770000D03*
D32*
X53950000Y-172700000D03*
D40*
X54600000Y-172750000D03*
X55250000Y-172750000D03*
X55900000Y-172750000D03*
X56550000Y-172750000D03*
X57200000Y-172750000D03*
X57850000Y-172750000D03*
X58500000Y-172750000D03*
X59150000Y-172750000D03*
X59800000Y-172750000D03*
X60450000Y-172750000D03*
X61100000Y-172750000D03*
X61750000Y-172750000D03*
X62400000Y-172750000D03*
X63050000Y-172750000D03*
X63700000Y-172750000D03*
X64350000Y-172750000D03*
X65000000Y-172750000D03*
X65650000Y-172750000D03*
X66300000Y-172750000D03*
X66950000Y-172750000D03*
X67600000Y-172750000D03*
X68250000Y-172750000D03*
X68900000Y-172750000D03*
X69550000Y-172750000D03*
X70200000Y-172750000D03*
X70850000Y-172750000D03*
X71500000Y-172750000D03*
X72150000Y-172750000D03*
X72800000Y-172750000D03*
X73450000Y-172750000D03*
X74100000Y-172750000D03*
X74750000Y-172750000D03*
X75400000Y-172750000D03*
X76050000Y-172750000D03*
X76700000Y-172750000D03*
X77350000Y-172750000D03*
X78000000Y-172750000D03*
X78650000Y-172750000D03*
D30*
X79300000Y-172740000D03*
D35*
X82250000Y-169770000D03*
D42*
X82300000Y-169120000D03*
X82300000Y-168470000D03*
X82300000Y-167820000D03*
X82300000Y-167170000D03*
X82300000Y-166520000D03*
X82300000Y-165870000D03*
X82300000Y-165220000D03*
X82300000Y-164570000D03*
X82300000Y-163920000D03*
X82300000Y-163270000D03*
X82300000Y-162620000D03*
X82300000Y-161970000D03*
X82300000Y-161320000D03*
X82300000Y-160670000D03*
X82300000Y-160020000D03*
X82300000Y-159370000D03*
X82300000Y-158720000D03*
X82300000Y-158070000D03*
X82300000Y-157420000D03*
X82300000Y-156770000D03*
X82300000Y-156120000D03*
X82300000Y-155470000D03*
X82300000Y-154820000D03*
X82300000Y-154170000D03*
X82300000Y-153520000D03*
X82300000Y-152870000D03*
X82300000Y-152220000D03*
X82300000Y-151570000D03*
X82300000Y-150920000D03*
X82300000Y-150270000D03*
X82300000Y-149620000D03*
X82300000Y-148970000D03*
X82300000Y-148320000D03*
X82300000Y-147670000D03*
X82300000Y-147020000D03*
X82300000Y-146370000D03*
X82300000Y-145720000D03*
X82300000Y-145070000D03*
D33*
X82290000Y-144420000D03*
D30*
X79300000Y-141450000D03*
D40*
X78650000Y-141460000D03*
X78000000Y-141460000D03*
X77350000Y-141460000D03*
X76700000Y-141460000D03*
X76050000Y-141460000D03*
X75400000Y-141460000D03*
X74750000Y-141460000D03*
X74100000Y-141460000D03*
X73450000Y-141460000D03*
X72800000Y-141460000D03*
X72150000Y-141460000D03*
X71500000Y-141460000D03*
X70850000Y-141460000D03*
X70200000Y-141460000D03*
X69550000Y-141460000D03*
X68900000Y-141460000D03*
X68250000Y-141460000D03*
X67600000Y-141460000D03*
X66950000Y-141460000D03*
X66300000Y-141460000D03*
X65650000Y-141460000D03*
X65000000Y-141460000D03*
X64350000Y-141460000D03*
X63700000Y-141460000D03*
X63050000Y-141460000D03*
X62400000Y-141460000D03*
X61750000Y-141460000D03*
X61100000Y-141460000D03*
X60450000Y-141460000D03*
X59800000Y-141460000D03*
X59150000Y-141460000D03*
X58500000Y-141460000D03*
X57850000Y-141460000D03*
X57200000Y-141460000D03*
X56550000Y-141460000D03*
X55900000Y-141460000D03*
X55250000Y-141460000D03*
X54600000Y-141460000D03*
D32*
X53950000Y-141410000D03*
D12*
X135280400Y-86156800D03*
D13*
X130200400Y-86156800D03*
D12*
X58960000Y-80970000D03*
D13*
X58960000Y-75890000D03*
D20*
X293120000Y-79290000D03*
D15*
X96450000Y-60895000D03*
X96450000Y-65895000D03*
D43*
X120340000Y-128970000D03*
X262270000Y-128970000D03*
D44*
X128970000Y-126170000D03*
X131510000Y-126170000D03*
X134050000Y-126170000D03*
X136590000Y-126170000D03*
X139130000Y-126170000D03*
X141670000Y-126170000D03*
X144210000Y-126170000D03*
X146750000Y-126170000D03*
X149290000Y-126170000D03*
X151830000Y-126170000D03*
X154370000Y-126170000D03*
X156910000Y-126170000D03*
X159450000Y-126170000D03*
X161990000Y-126170000D03*
X164530000Y-126170000D03*
X167070000Y-126170000D03*
X169610000Y-126170000D03*
X172150000Y-126170000D03*
X174690000Y-126170000D03*
X177230000Y-126170000D03*
X179770000Y-126170000D03*
X182310000Y-126170000D03*
X184850000Y-126170000D03*
X187390000Y-126170000D03*
X189930000Y-126170000D03*
X192470000Y-126170000D03*
X195010000Y-126170000D03*
X197550000Y-126170000D03*
X200090000Y-126170000D03*
X202630000Y-126170000D03*
X205170000Y-126170000D03*
X207710000Y-126170000D03*
X210250000Y-126170000D03*
X212790000Y-126170000D03*
X215330000Y-126170000D03*
X217870000Y-126170000D03*
X220410000Y-126170000D03*
X222950000Y-126170000D03*
X225490000Y-126170000D03*
X228030000Y-126170000D03*
X230570000Y-126170000D03*
X233110000Y-126170000D03*
X235650000Y-126170000D03*
X238190000Y-126170000D03*
X240730000Y-126170000D03*
X243270000Y-126170000D03*
X245810000Y-126170000D03*
X248350000Y-126170000D03*
X250890000Y-126170000D03*
X253430000Y-126170000D03*
X128970000Y-131630000D03*
X131510000Y-131630000D03*
X134050000Y-131630000D03*
X136590000Y-131630000D03*
X139130000Y-131630000D03*
X141670000Y-131630000D03*
X144210000Y-131630000D03*
X146750000Y-131630000D03*
X149290000Y-131630000D03*
X151830000Y-131630000D03*
X154370000Y-131630000D03*
X156910000Y-131630000D03*
X159450000Y-131630000D03*
X161990000Y-131630000D03*
X164530000Y-131630000D03*
X167070000Y-131630000D03*
X169610000Y-131630000D03*
X172150000Y-131630000D03*
X174690000Y-131630000D03*
X177230000Y-131630000D03*
X179770000Y-131630000D03*
X182310000Y-131630000D03*
X184850000Y-131630000D03*
X187390000Y-131630000D03*
X189930000Y-131630000D03*
X192470000Y-131630000D03*
X195010000Y-131630000D03*
X197550000Y-131630000D03*
X200090000Y-131630000D03*
X202630000Y-131630000D03*
X205170000Y-131630000D03*
X207710000Y-131630000D03*
X210250000Y-131630000D03*
X212790000Y-131630000D03*
X215330000Y-131630000D03*
X217870000Y-131630000D03*
X220410000Y-131630000D03*
X222950000Y-131630000D03*
X225490000Y-131630000D03*
X228030000Y-131630000D03*
X230570000Y-131630000D03*
X233110000Y-131630000D03*
X235650000Y-131630000D03*
X238190000Y-131630000D03*
X240730000Y-131630000D03*
X243270000Y-131630000D03*
X245810000Y-131630000D03*
X248350000Y-131630000D03*
X250890000Y-131630000D03*
X253430000Y-131630000D03*
D21*
X168340000Y-219390000D03*
X170840000Y-219390000D03*
D12*
X198927500Y-50620000D03*
D13*
X198927500Y-55700000D03*
D64*
X122636000Y-198980000D03*
D65*
X124414000Y-198980000D03*
X126192000Y-198980000D03*
X127970000Y-198980000D03*
X129748000Y-198980000D03*
X131526000Y-198980000D03*
X133304000Y-198980000D03*
X135082000Y-198980000D03*
X136860000Y-198980000D03*
X138638000Y-198980000D03*
X140416000Y-198980000D03*
X142194000Y-198980000D03*
X143972000Y-198980000D03*
X145750000Y-198980000D03*
X147528000Y-198980000D03*
X149306000Y-198980000D03*
X151084000Y-198980000D03*
X152862000Y-198980000D03*
X154640000Y-198980000D03*
X156418000Y-198980000D03*
X158196000Y-198980000D03*
X159974000Y-198980000D03*
X161752000Y-198980000D03*
X163530000Y-198980000D03*
X165308000Y-198980000D03*
X167086000Y-198980000D03*
X168864000Y-198980000D03*
X170642000Y-198980000D03*
X172420000Y-198980000D03*
X174198000Y-198980000D03*
X175976000Y-198980000D03*
X177754000Y-198980000D03*
X177754000Y-179980000D03*
X175976000Y-179980000D03*
X174198000Y-179980000D03*
X172420000Y-179980000D03*
X170642000Y-179980000D03*
X168864000Y-179980000D03*
X167086000Y-179980000D03*
X165308000Y-179980000D03*
X163530000Y-179980000D03*
X161752000Y-179980000D03*
X159974000Y-179980000D03*
X158196000Y-179980000D03*
X156418000Y-179980000D03*
X154640000Y-179980000D03*
X152862000Y-179980000D03*
X151084000Y-179980000D03*
X149306000Y-179980000D03*
X147528000Y-179980000D03*
X145750000Y-179980000D03*
X143972000Y-179980000D03*
X142194000Y-179980000D03*
X140416000Y-179980000D03*
X138638000Y-179980000D03*
X136860000Y-179980000D03*
X135082000Y-179980000D03*
X133304000Y-179980000D03*
X131526000Y-179980000D03*
X129748000Y-179980000D03*
X127970000Y-179980000D03*
X126192000Y-179980000D03*
X124414000Y-179980000D03*
X122636000Y-179980000D03*
D12*
X234467400Y-77927200D03*
D13*
X234467400Y-83007200D03*
D15*
X64026400Y-218089000D03*
X69026400Y-218089000D03*
D12*
X209110000Y-237250000D03*
D13*
X204030000Y-237250000D03*
D12*
X130262500Y-177500000D03*
D13*
X135342500Y-177500000D03*
D12*
X237160000Y-236010000D03*
X237160000Y-238510000D03*
X254889000Y-215734900D03*
D13*
X254889000Y-220814900D03*
D11*
X158125000Y-228290000D03*
D12*
X155585000Y-228290000D03*
X153045000Y-228290000D03*
X150505000Y-228290000D03*
X147965000Y-228290000D03*
X145425000Y-228290000D03*
X142885000Y-228290000D03*
X142885000Y-235910000D03*
X145425000Y-235910000D03*
X147965000Y-235910000D03*
X150505000Y-235910000D03*
X153045000Y-235910000D03*
X155585000Y-235910000D03*
X158125000Y-235910000D03*
D11*
X122525000Y-98750000D03*
D12*
X125065000Y-98750000D03*
X127605000Y-98750000D03*
X130145000Y-98750000D03*
X132685000Y-98750000D03*
X135225000Y-98750000D03*
X137765000Y-98750000D03*
X137765000Y-91130000D03*
X135225000Y-91130000D03*
X132685000Y-91130000D03*
X130145000Y-91130000D03*
X127605000Y-91130000D03*
X125065000Y-91130000D03*
X122525000Y-91130000D03*
X128910000Y-45600000D03*
D13*
X128910000Y-40520000D03*
D12*
X103500000Y-219390000D03*
X106040000Y-219390000D03*
X108580000Y-219390000D03*
X111120000Y-219390000D03*
X113660000Y-219390000D03*
X116200000Y-219390000D03*
X118740000Y-219390000D03*
X121280000Y-219390000D03*
D11*
X255745000Y-194140000D03*
D12*
X258285000Y-194140000D03*
X260825000Y-194140000D03*
X263365000Y-194140000D03*
X265905000Y-194140000D03*
X268445000Y-194140000D03*
X270985000Y-194140000D03*
X270985000Y-186520000D03*
X268445000Y-186520000D03*
X265905000Y-186520000D03*
X263365000Y-186520000D03*
X260825000Y-186520000D03*
X258285000Y-186520000D03*
X255745000Y-186520000D03*
D20*
X219350000Y-200380000D03*
D12*
X214230000Y-225940000D03*
D13*
X219310000Y-225940000D03*
D12*
X186197500Y-233480000D03*
D13*
X181117500Y-233480000D03*
D15*
X56990000Y-210480000D03*
D16*
X56990000Y-200320000D03*
D11*
X102200000Y-230690000D03*
D12*
X104740000Y-230690000D03*
X107280000Y-230690000D03*
X109820000Y-230690000D03*
X112360000Y-230690000D03*
X114900000Y-230690000D03*
X117440000Y-230690000D03*
X119980000Y-230690000D03*
X122520000Y-230690000D03*
X125060000Y-230690000D03*
X89450000Y-83630000D03*
D13*
X89450000Y-78550000D03*
D17*
X253568200Y-210718400D03*
D15*
X178550000Y-248630000D03*
D16*
X168390000Y-248630000D03*
M02*
