G04 #@! TF.GenerationSoftware,KiCad,Pcbnew,7.0.8*
G04 #@! TF.CreationDate,2023-12-24T15:39:21+00:00*
G04 #@! TF.ProjectId,NeoGeoAES3_5,4e656f47-656f-4414-9553-335f352e6b69,BF1.3*
G04 #@! TF.SameCoordinates,Original*
G04 #@! TF.FileFunction,Profile,NP*
%FSLAX46Y46*%
G04 Gerber Fmt 4.6, Leading zero omitted, Abs format (unit mm)*
G04 Created by KiCad (PCBNEW 7.0.8) date 2023-12-24 15:39:21*
%MOMM*%
%LPD*%
G01*
G04 APERTURE LIST*
G04 #@! TA.AperFunction,Profile*
%ADD10C,0.100000*%
G04 #@! TD*
G04 APERTURE END LIST*
D10*
X158041786Y-43916600D02*
G75*
G03*
X158041786Y-43916600I-1730186J0D01*
G01*
X343040000Y-38950000D02*
G75*
G03*
X343040000Y-38950000I-2000000J0D01*
G01*
X105562401Y-43992800D02*
G75*
G03*
X105562401Y-43992800I-1730186J0D01*
G01*
X64334600Y-61521200D02*
X64334600Y-56821200D01*
X272260000Y-263810000D02*
X85260000Y-263810000D01*
X272260000Y-228590000D02*
X272260000Y-263810000D01*
X48234600Y-61521200D02*
G75*
G03*
X56084600Y-69371200I7850000J0D01*
G01*
X326320000Y-69100000D02*
G75*
G03*
X334170000Y-61250000I0J7850000D01*
G01*
X43200000Y-38975000D02*
G75*
G03*
X43200000Y-38975000I-2000000J0D01*
G01*
X56484600Y-218501600D02*
X56084600Y-218501600D01*
X64334600Y-56821200D02*
G75*
G03*
X56484600Y-48971200I-7850000J0D01*
G01*
X227460186Y-253990000D02*
G75*
G03*
X227460186Y-253990000I-1730186J0D01*
G01*
X56084600Y-218501600D02*
G75*
G03*
X48234600Y-226351600I0J-7850000D01*
G01*
X90180000Y-225710000D02*
G75*
G03*
X90180000Y-225710000I-1850000J0D01*
G01*
X56084600Y-238901600D02*
X56484600Y-238901600D01*
X64334600Y-231051600D02*
X64334600Y-226351600D01*
X334170000Y-61250000D02*
X334170000Y-56550000D01*
X325920000Y-69100000D02*
X326320000Y-69100000D01*
X56484600Y-48971200D02*
X56084600Y-48971200D01*
X36260000Y-34040000D02*
X346260000Y-34040000D01*
X85260000Y-259070000D02*
X36260000Y-259070000D01*
X56484600Y-238901600D02*
G75*
G03*
X64334600Y-231051600I0J7850000D01*
G01*
X48234600Y-226351600D02*
X48234600Y-231051600D01*
X36260000Y-259070000D02*
X36260000Y-34040000D01*
X334170000Y-56550000D02*
G75*
G03*
X326320000Y-48700000I-7850000J0D01*
G01*
X56484600Y-69371200D02*
G75*
G03*
X64334600Y-61521200I0J7850000D01*
G01*
X346260000Y-34040000D02*
X346260000Y-228590000D01*
X157988747Y-253847600D02*
G75*
G03*
X157988747Y-253847600I-1727947J0D01*
G01*
X105587801Y-253833075D02*
G75*
G03*
X105587801Y-253833075I-1730186J0D01*
G01*
X48234600Y-56821200D02*
X48234600Y-61521200D01*
X326320000Y-48700000D02*
X325920000Y-48700000D01*
X56084600Y-69371200D02*
X56484600Y-69371200D01*
X56084600Y-48971200D02*
G75*
G03*
X48234600Y-56821200I0J-7850000D01*
G01*
X318070000Y-61250000D02*
G75*
G03*
X325920000Y-69100000I7850000J0D01*
G01*
X85260000Y-263810000D02*
X85260000Y-259070000D01*
X318070000Y-56550000D02*
X318070000Y-61250000D01*
X48234600Y-231051600D02*
G75*
G03*
X56084600Y-238901600I7850000J0D01*
G01*
X64334600Y-226351600D02*
G75*
G03*
X56484600Y-218501600I-7850000J0D01*
G01*
X228244400Y-43967400D02*
G75*
G03*
X228244400Y-43967400I-1752600J0D01*
G01*
X276758400Y-44018200D02*
G75*
G03*
X276758400Y-44018200I-1752600J0D01*
G01*
X325920000Y-48700000D02*
G75*
G03*
X318070000Y-56550000I0J-7850000D01*
G01*
X346260000Y-228590000D02*
X272260000Y-228590000D01*
M02*
